<svg width="519" height="177" viewBox="0 0 519 177" fill="none" xmlns="http://www.w3.org/2000/svg">
<path d="M11.2669 12C10.1357 12.0014 9.05117 12.4535 8.25125 13.2572C7.45134 14.0609 7.00132 15.1506 7 16.2872V162.511C7.00132 163.648 7.45133 164.738 8.25125 165.541C9.05117 166.345 10.1357 166.797 11.2669 166.798H507.503C508.634 166.797 509.719 166.345 510.519 165.541C511.319 164.738 511.768 163.648 511.77 162.511V16.2872C511.769 15.1506 511.319 14.0609 510.519 13.2572C509.719 12.4535 508.634 12.0013 507.503 12L11.2669 12Z" fill="#E6E6E6"/>
<path d="M18 157.311H501.384V24H18V157.311Z" fill="white"/>
<path d="M441.068 135C439.193 135 437.396 135.748 436.07 137.08C434.745 138.412 434 140.218 434 142.102C434 143.985 434.745 145.791 436.07 147.123C437.396 148.455 439.193 149.203 441.068 149.203H469.34C471.214 149.203 473.012 148.455 474.338 147.123C475.663 145.791 476.408 143.985 476.408 142.102C476.408 140.218 475.663 138.412 474.338 137.08C473.012 135.748 471.214 135 469.34 135H441.068Z" fill="#6217C3"/>
<path d="M476.365 117H150V118.868H476.365V117Z" fill="#E6E6E6"/>
<path d="M79.1673 130.727C101.903 130.727 120.335 112.208 120.335 89.3633C120.335 66.519 101.903 48 79.1673 48C56.4312 48 38 66.519 38 89.3633C38 112.208 56.4312 130.727 79.1673 130.727Z" fill="#6217C3"/>
<path d="M149.032 100.742L148 99.1875L181.914 76.4707L205.171 87.6871L238.621 66.2142L239.074 66.4071L305.163 94.7341L358.154 68.5798L409.61 89.5389L474.266 32L475.498 33.3998L409.98 91.7066L358.226 70.6255L305.217 96.7889L238.796 68.3199L205.299 89.8218L182.065 78.6164L149.032 100.742Z" fill="#3F3D56"/>
<path d="M153.044 135C151.441 135 149.904 135.64 148.77 136.779C147.637 137.917 147 139.462 147 141.073C147 142.683 147.637 144.228 148.77 145.367C149.904 146.505 151.441 147.145 153.044 147.145H216.271C217.874 147.145 219.411 146.505 220.545 145.367C221.678 144.228 222.315 142.683 222.315 141.073C222.315 139.462 221.678 137.917 220.545 136.779C219.411 135.64 217.874 135 216.271 135H153.044Z" fill="#E6E6E6"/>
<path d="M80.6553 116.582L97.3207 93L80.6553 102.887L64 93L80.6543 116.582H80.6553Z" fill="white"/>
<path d="M80.6543 92.6587H80.6553L97.3107 82.7671L80.6553 55H80.6543L64 82.7671L80.6543 92.6587Z" fill="white"/>
</svg>
