<svg width="185" height="394" viewBox="0 0 185 394" fill="none" xmlns="http://www.w3.org/2000/svg">
<g clip-path="url(#clip0_1_93)">
<path d="M106.357 145.449L104.99 158.183L105.795 174.883L68.9826 170.489L65.5229 145.449L69.9304 145.492L106.357 145.449Z" fill="#FFB6B6"/>
<path d="M74.3042 103.593L83.0516 98.3197L87.2455 91.8163L100.188 93.8171L116.009 104.474L115.854 128.644L106.045 153.712L64.932 148.438L63.37 139.596C63.37 139.596 51.9983 124.249 64.2447 115.459L74.3042 103.593Z" fill="#6217C3"/>
<path d="M21.8029 31.8242C21.3884 32.7122 21.1727 33.6808 21.171 34.6617C21.1694 35.6426 21.3817 36.6119 21.7932 37.5014C22.2047 38.3909 22.8053 39.1789 23.5527 39.81C24.3 40.441 25.1759 40.8997 26.1188 41.1538L54.5989 95.15L66.0946 86.2349L34.4848 35.9617C34.8045 34.3418 34.5219 32.6603 33.6903 31.2359C32.8587 29.8114 31.536 28.743 29.9728 28.233C28.4096 27.723 26.7145 27.8068 25.2087 28.4687C23.703 29.1306 22.4912 30.3245 21.8029 31.8242V31.8242Z" fill="#FFB6B6"/>
<path d="M68.5209 113.396C68.5209 113.396 65.8817 115.747 62.1286 109.253C59.124 104.054 44.1392 80.7735 42.0175 72.7032C40.8536 72.7362 39.7119 72.3792 38.7722 71.6884C37.8325 70.9976 37.1482 70.0122 36.8271 68.8876L52.9231 62.6101C56.4221 64.368 55.451 66.8045 54.5637 68.065L60.5583 77.1001L80.4981 99.5848L70.4586 111.73L68.5209 113.396Z" fill="#6217C3"/>
<path d="M125.451 376.666H117.403L113.572 345.472H125.451V376.666Z" fill="#FFB6B6"/>
<path d="M129.699 390.677H123.927L122.897 385.202L120.258 390.677H104.95C104.216 390.677 103.502 390.442 102.911 390.005C102.32 389.568 101.883 388.952 101.665 388.248C101.446 387.544 101.458 386.789 101.697 386.092C101.936 385.395 102.391 384.793 102.995 384.374L115.219 375.891V370.355L128.078 371.126L129.699 390.677Z" fill="#2F2E41"/>
<path d="M80.2425 376.666H72.1943L68.3633 345.472H80.2425V376.666Z" fill="#FFB6B6"/>
<path d="M84.4902 390.677H78.7184L77.6881 385.202L75.0495 390.677H59.7413C59.0075 390.677 58.2929 390.442 57.7019 390.005C57.1108 389.568 56.6742 388.952 56.4558 388.248C56.2375 387.544 56.2488 386.789 56.488 386.092C56.7273 385.395 57.1821 384.793 57.7859 384.374L70.0106 375.891V370.355L82.8688 371.126L84.4902 390.677Z" fill="#2F2E41"/>
<path d="M128.924 349.766H128.836L127.288 299.046C128.29 297.105 128.798 294.945 128.768 292.758C128.738 290.572 128.17 288.426 127.115 286.514L126.894 286.111L127.468 283.434C128.206 279.996 127.868 276.412 126.499 273.175L125.055 225.863C130.213 192.269 105.628 170.36 105.628 170.36H68.7986L66.1666 179.446L63.3517 181.849L64.4173 185.485L61.3606 189.852L60.8918 197.656C55.6647 248.828 56.6131 298.692 64.9078 347.003L64.6817 347.118C64.2528 347.358 63.9325 347.755 63.7872 348.227C63.6419 348.698 63.6828 349.208 63.9014 349.65C64.2847 350.765 65.2555 351.441 66.0697 351.159L85.5199 350.479C85.9488 350.238 86.2692 349.841 86.4144 349.37C86.5597 348.899 86.5188 348.389 86.3001 347.947C85.9168 346.831 84.946 346.156 84.1318 346.438L82.8093 347.11L85.6297 298.168L85.3167 289.229L85.9616 279.087L88.9429 233.47L100.228 289.566L111.755 350.33C111.437 350.619 111.214 350.999 111.115 351.418C111.016 351.837 111.046 352.277 111.201 352.679C111.355 353.081 111.628 353.426 111.982 353.669C112.336 353.912 112.756 354.041 113.185 354.04H128.924C129.488 354.04 130.029 353.815 130.428 353.414C130.827 353.013 131.051 352.47 131.051 351.903C131.051 351.336 130.827 350.792 130.428 350.392C130.029 349.991 129.488 349.766 128.924 349.766V349.766Z" fill="#2F2E41"/>
<path d="M169.258 191.229C169.647 190.329 169.834 189.354 169.807 188.374C169.781 187.393 169.54 186.43 169.103 185.553C168.666 184.676 168.043 183.906 167.277 183.297C166.512 182.689 165.623 182.256 164.673 182.029L134.637 128.891L123.405 138.14L156.461 187.465C156.189 189.093 156.52 190.766 157.393 192.165C158.265 193.565 159.619 194.594 161.196 195.058C162.773 195.522 164.465 195.388 165.951 194.682C167.437 193.977 168.614 192.748 169.258 191.229V191.229Z" fill="#FFB6B6"/>
<path d="M113.505 104.436C113.505 104.436 116.075 102.008 120.015 108.389C123.17 113.498 145.51 142.955 147.865 150.96C149.027 150.893 150.179 151.216 151.138 151.879C152.098 152.542 152.81 153.507 153.164 154.621L137.257 161.368C133.709 159.714 132.055 156.619 132.906 155.333L126.651 146.477L103.202 119.275L111.617 106.158L113.505 104.436Z" fill="#6217C3"/>
<path d="M80.9551 56.7395C75.5998 67.3457 79.0981 79.631 89.0357 86.0915C99.7818 93.0774 113.734 91.5478 118.247 77.9719C123.273 62.8537 119.144 56.3682 110.166 48.6199C99.6456 39.5399 86.7414 45.2798 80.9551 56.7395Z" fill="#2F2E41"/>
<path d="M107.317 80.3667C104.59 83.9555 100.558 86.31 96.1047 86.9132C91.6517 87.5164 87.1424 86.3189 83.5675 83.5836C79.9926 80.8484 77.6444 76.7992 77.0386 72.3255C76.4329 67.8518 77.6192 63.3194 80.3369 59.7239L80.4841 59.5297C83.2614 56.0366 87.2939 53.7805 91.7117 53.248C96.1296 52.7155 100.579 53.9494 104.099 56.6833C107.62 59.4173 109.93 63.4324 110.531 67.8624C111.132 72.2923 109.976 76.7822 107.313 80.3635L107.317 80.3667Z" fill="#FFB6B6"/>
<path d="M75.7653 55.0223C78.5209 57.6569 81.8797 59.5692 85.5451 60.5904C86.2798 59.7364 87.1508 59.0111 88.1224 58.4442C87.6573 59.4166 87.3385 60.4529 87.1766 61.5194C88.8113 64.9284 95.4882 67.3785 101.87 69.8849L110.322 54.8963L99.1343 48.5266C90.1447 42.2817 79.562 44.947 75.7653 55.0223Z" fill="#2F2E41"/>
<path d="M116.698 48.6387C117.513 48.3366 118.392 48.2445 119.252 48.3707C120.113 48.497 120.928 48.8376 121.624 49.3616C122.986 50.402 124.087 51.7478 124.84 53.2918C126.208 55.7899 127.191 58.4822 127.755 61.2767C128.238 63.6943 128.156 66.6172 125.997 67.8788C124.196 68.9315 121.621 68.2687 119.965 66.8637C118.431 65.3897 117.267 63.5705 116.569 61.556C115.884 59.5561 114.867 57.687 113.562 56.0278L115.053 56.7274C114.582 55.2892 114.362 53.7798 114.404 52.2662C114.438 51.513 114.668 50.782 115.07 50.1456C115.472 49.5092 116.034 48.9897 116.698 48.6387V48.6387Z" fill="#2F2E41"/>
<path d="M97.3475 50.6032L109.35 57.4369C110.957 58.3518 112.369 59.5759 113.505 61.0391C114.641 62.5024 115.48 64.1762 115.972 65.965C116.465 67.7538 116.602 69.6225 116.375 71.4645C116.149 73.3065 115.564 75.0857 114.653 76.7004C111.974 81.4499 107.629 85.025 102.467 86.7273C97.305 88.4295 91.6966 88.1366 86.738 85.9056L97.7056 76.177L82.8272 83.7942L79.6506 81.9855C95.6073 79.0702 98.6854 66.4932 97.3475 50.6032Z" fill="#2F2E41"/>
</g>
<defs>
<clipPath id="clip0_1_93">
<rect width="422" height="533" fill="white" transform="translate(-181 -139)"/>
</clipPath>
</defs>
</svg>
