<svg width="519" height="169" viewBox="0 0 519 169" fill="none" xmlns="http://www.w3.org/2000/svg">
<path d="M11.2676 4.34818C10.1363 4.3495 9.05178 4.80163 8.25186 5.60535C7.45195 6.40908 7.00196 7.49878 7.00064 8.63541V154.859C7.00196 155.996 7.45195 157.086 8.25186 157.89C9.05178 158.693 10.1363 159.145 11.2676 159.147H507.504C508.635 159.145 509.719 158.693 510.519 157.89C511.319 157.086 511.769 155.996 511.77 154.859V8.63538C511.769 7.49875 511.319 6.40906 510.519 5.60534C509.719 4.80161 508.635 4.34948 507.504 4.34814L11.2676 4.34818Z" fill="#E6E6E6"/>
<path d="M17.6934 148.403H501.077V15.0919H17.6934V148.403Z" fill="white"/>
<path d="M440.063 120.747C438.188 120.747 436.39 121.495 435.065 122.827C433.739 124.159 432.995 125.965 432.995 127.849C432.995 129.732 433.739 131.539 435.065 132.87C436.39 134.202 438.188 134.95 440.063 134.95H468.335C470.209 134.95 472.007 134.202 473.332 132.87C474.658 131.539 475.403 129.732 475.403 127.849C475.403 125.965 474.658 124.159 473.332 122.827C472.007 121.495 470.209 120.747 468.335 120.747H440.063Z" fill="#6217C3"/>
<path d="M475.403 106.972H149.037V108.841H475.403V106.972Z" fill="#E6E6E6"/>
<path d="M80.8164 123.111C103.552 123.111 121.984 104.592 121.984 81.7474C121.984 58.9031 103.552 40.3841 80.8164 40.3841C58.0803 40.3841 39.649 58.9031 39.649 81.7474C39.649 104.592 58.0803 123.111 80.8164 123.111Z" fill="#6217C3"/>
<path d="M149.553 96.5379L148.522 94.9831L182.435 72.2663L205.691 83.4828L239.142 62.0098L239.594 62.2028L305.684 90.5298L358.674 64.3754L410.13 85.3355L474.786 27.7956L476.019 29.1944L410.5 87.5022L358.747 66.4212L305.739 92.5845L239.316 64.1155L205.821 85.6175L182.586 74.411L149.553 96.5379Z" fill="#3F3D56"/>
<path d="M155.081 121.724C153.479 121.726 151.944 122.367 150.812 123.505C149.681 124.644 149.045 126.187 149.045 127.797C149.045 129.406 149.681 130.949 150.812 132.088C151.944 133.226 153.479 133.867 155.081 133.869H218.308C219.911 133.869 221.449 133.229 222.582 132.091C223.715 130.952 224.352 129.407 224.352 127.797C224.352 126.186 223.715 124.641 222.582 123.503C221.449 122.364 219.911 121.724 218.308 121.724H155.081Z" fill="#E6E6E6"/>
<path d="M97.3802 76.9196C98.1497 71.7434 94.2273 68.9609 88.864 67.1046L90.6038 60.0928L86.3547 59.0291L84.6609 65.8561C83.5453 65.5765 82.3984 65.3127 81.2587 65.0514L82.9646 58.1794L78.7192 57.1157L76.9782 64.1251C76.0538 63.9135 75.1464 63.7045 74.2656 63.4844L74.2705 63.4625L68.4123 61.9928L67.2823 66.5515C67.2823 66.5515 70.434 67.2772 70.3675 67.3222C70.9553 67.3929 71.492 67.6926 71.8621 68.1568C72.2323 68.621 72.4063 69.2127 72.3468 69.8045L70.365 77.7924C70.5152 77.83 70.6627 77.8775 70.8066 77.9346L70.3589 77.8228L67.5799 89.0127C67.5188 89.208 67.4199 89.3893 67.2889 89.5461C67.1578 89.7028 66.9972 89.8321 66.8163 89.9263C66.6354 90.0205 66.4378 90.0779 66.2347 90.0951C66.0317 90.1123 65.8272 90.089 65.6332 90.0265C65.6755 90.0885 62.5456 89.2522 62.5456 89.2522L60.4368 94.139L65.9659 95.5236C66.9943 95.7826 68.0021 96.0536 68.993 96.3089L67.2351 103.402L71.4781 104.466L73.2203 97.4492C74.3782 97.7653 75.5033 98.057 76.6043 98.3317L74.8694 105.316L79.1173 106.379L80.8752 99.3006C88.1187 100.678 93.5667 100.122 95.857 93.5409C97.7045 88.2408 95.7663 85.1835 91.9552 83.1886C94.7306 82.5431 96.8213 80.7087 97.379 76.9196L97.3802 76.9196ZM87.6734 90.5943C86.3595 95.8944 77.479 93.0304 74.5983 92.3107L76.9309 82.9151C79.8104 83.6372 89.043 85.0668 87.6746 90.5943H87.6734ZM88.9861 76.843C87.7883 81.6642 80.396 79.2147 77.9969 78.6142L80.1117 70.0926C82.5109 70.6931 90.2347 71.8139 88.9861 76.843Z" fill="white"/>
</svg>
