<svg width="151" height="445" viewBox="0 0 151 445" fill="none" xmlns="http://www.w3.org/2000/svg">
<path d="M97.5643 371.272L103.259 382.824L113.698 381.935L120.341 361.498L109.902 356.167L97.5643 371.272Z" fill="#FFB8B8"/>
<path d="M61.726 397.877L61.5012 405.927L77.6347 406.815V397.041L61.726 397.877Z" fill="#FFB8B8"/>
<path d="M67.195 251.314L70.9912 322.4L61.5012 399.706L89.972 403.261L108.004 305.517L113.698 238.873L67.195 251.314Z" fill="#2F2E41"/>
<path d="M22.5907 225.545C22.5907 225.545 11.2023 295.743 34.9282 318.846C58.654 341.949 90.9212 382.824 90.9212 382.824L113.698 356.166L55.8069 298.409L67.1954 259.311L113.698 238.874L106.106 190.002L37.7753 189.113L22.5907 225.545Z" fill="#2F2E41"/>
<path d="M78.5838 62.9346C90.1148 62.9346 99.4626 54.1823 99.4626 43.3858C99.4626 32.5893 90.1148 23.837 78.5838 23.837C67.0528 23.837 57.705 32.5893 57.705 43.3858C57.705 54.1823 67.0528 62.9346 78.5838 62.9346Z" fill="#FFB8B8"/>
<path d="M60.5521 47.8287C60.5521 47.8287 59.6031 75.3747 54.8579 78.929C50.1127 82.4833 71.9406 97.5892 71.9406 97.5892L86.1761 76.2633V56.7145L60.5521 47.8287Z" fill="#FFB8B8"/>
<path d="M70.0424 85.1491L58.5203 68.8592L52.0104 77.152L42.5204 102.032L50.1127 198.887L94.7169 199.776L100.412 88.7034L86.1758 72.7093L70.0424 85.1491Z" fill="#D0CDE1"/>
<path d="M118.443 91.3691L126.036 90.4806C126.036 90.4806 127.934 91.3691 128.883 97.5892C129.832 103.809 141.22 158.901 141.22 158.901L126.036 226.433L108.953 205.107L119.392 167.787L108.953 130.467L118.443 91.3691Z" fill="#2F2E41"/>
<path d="M21.642 90.4802H15.9473L1.71237 162.455L14.9985 218.437L28.2846 197.999L24.4884 175.784L26.387 156.236L33.0305 144.684L21.642 90.4802Z" fill="#2F2E41"/>
<path d="M106.106 379.269C106.106 379.269 100.412 377.492 100.412 381.046C100.412 384.601 104.208 395.264 104.208 395.264C104.208 395.264 98.5136 428.141 107.055 426.364C115.596 424.587 122.239 409.481 123.188 405.038C124.138 400.595 128.883 377.492 128.883 377.492C128.883 377.492 136.475 360.609 131.73 359.721C126.985 358.832 113.698 355.278 113.698 355.278C113.698 355.278 121.29 377.492 106.106 379.269Z" fill="#2F2E41"/>
<path d="M78.5838 406.815C78.5838 406.815 63.3992 397.929 60.5521 405.038C58.6639 410.223 57.3908 415.587 56.756 421.033C56.756 421.033 52.9598 432.584 68.1444 430.807C83.329 429.03 81.4309 429.03 82.3799 423.698C83.329 418.367 78.5838 406.815 78.5838 406.815Z" fill="#2F2E41"/>
<path d="M66.2463 43.3858L70.0425 42.4972C70.0425 42.4972 72.8896 27.3914 79.5328 29.1685C86.1761 30.9457 103.259 32.7229 103.259 25.6142C103.259 18.5055 87.1251 12.2855 77.6348 13.174C68.1444 14.0626 52.0108 16.7284 52.9599 30.0571C53.9089 43.3858 60.0328 56.3518 60.0328 56.3518L60.5274 48.4493L66.2463 43.3858Z" fill="#2F2E41"/>
<path d="M86.1758 95.8121L70.0424 85.1491L86.1758 72.7093L91.7774 79.0018L86.1758 95.8121Z" fill="#D0CDE1"/>
<path d="M55.8065 94.9238L70.0424 85.1491L58.6539 69.155L52.0103 77.1521L55.8065 94.9238Z" fill="#D0CDE1"/>
<path d="M125.087 90.4806L94.7174 78.929L87.5996 74.0418L66.2463 162.456L52.0108 122.469L56.2814 71.3761L16.8965 90.4806L30.183 150.904L32.0811 174.007L26.3869 192.667C26.3869 192.667 6.45712 205.996 13.1004 220.213C19.7436 234.431 27.3359 235.319 27.3359 235.319C27.3359 235.319 59.6031 206.885 61.5012 199.776C63.3992 192.667 66.2463 180.227 66.2463 180.227C66.2463 180.227 82.38 237.096 101.361 236.208C120.341 235.319 120.341 216.659 120.341 216.659L115.596 197.11L108.004 176.673L111.8 142.907L125.087 90.4806Z" fill="#2F2E41"/>
</svg>
