<svg width="1058" height="878" viewBox="0 0 1058 878" fill="none" xmlns="http://www.w3.org/2000/svg">
<rect width="1058" height="878" fill="#1E1E1E"/>
<path d="M274.268 247.348C273.136 247.349 272.052 247.802 271.252 248.605C270.452 249.409 270.002 250.499 270.001 251.635V397.859C270.002 398.996 270.452 400.086 271.252 400.89C272.052 401.693 273.136 402.145 274.268 402.147H770.504C771.635 402.145 772.719 401.693 773.519 400.89C774.319 400.086 774.769 398.996 774.77 397.859V251.635C774.769 250.499 774.319 249.409 773.519 248.605C772.719 247.802 771.635 247.349 770.504 247.348L274.268 247.348Z" fill="#E6E6E6"/>
<path d="M280.693 391.403H764.077V258.092H280.693V391.403Z" fill="white"/>
<path d="M703.063 363.747C701.188 363.747 699.39 364.495 698.065 365.827C696.739 367.159 695.995 368.965 695.995 370.849C695.995 372.732 696.739 374.539 698.065 375.87C699.39 377.202 701.188 377.95 703.063 377.95H731.335C733.209 377.95 735.007 377.202 736.332 375.87C737.658 374.539 738.403 372.732 738.403 370.849C738.403 368.965 737.658 367.159 736.332 365.827C735.007 364.495 733.209 363.747 731.335 363.747H703.063Z" fill="#6217C3"/>
<path d="M738.403 349.972H412.037V351.841H738.403V349.972Z" fill="#E6E6E6"/>
<path d="M343.816 366.111C366.552 366.111 384.984 347.592 384.984 324.747C384.984 301.903 366.552 283.384 343.816 283.384C321.08 283.384 302.649 301.903 302.649 324.747C302.649 347.592 321.08 366.111 343.816 366.111Z" fill="#6217C3"/>
<path d="M412.553 339.538L411.522 337.983L445.435 315.266L468.691 326.483L502.142 305.01L502.594 305.203L568.684 333.53L621.674 307.375L673.13 328.335L737.786 270.796L739.019 272.194L673.5 330.502L621.747 309.421L568.739 335.584L502.316 307.115L468.821 328.617L445.586 317.411L412.553 339.538Z" fill="#3F3D56"/>
<path d="M418.081 364.724C416.479 364.726 414.944 365.367 413.812 366.505C412.681 367.644 412.045 369.187 412.045 370.797C412.045 372.406 412.681 373.949 413.812 375.088C414.944 376.226 416.479 376.867 418.081 376.869H481.308C482.911 376.869 484.449 376.229 485.582 375.091C486.715 373.952 487.352 372.407 487.352 370.797C487.352 369.186 486.715 367.641 485.582 366.503C484.449 365.364 482.911 364.724 481.308 364.724H418.081Z" fill="#E6E6E6"/>
<path d="M360.38 319.92C361.15 314.743 357.227 311.961 351.864 310.105L353.604 303.093L349.355 302.029L347.661 308.856C346.545 308.577 345.398 308.313 344.259 308.051L345.965 301.179L341.719 300.116L339.978 307.125C339.054 306.914 338.146 306.704 337.266 306.484L337.27 306.463L331.412 304.993L330.282 309.551C330.282 309.551 333.434 310.277 333.367 310.322C333.955 310.393 334.492 310.693 334.862 311.157C335.232 311.621 335.406 312.213 335.347 312.804L333.365 320.792C333.515 320.83 333.663 320.877 333.807 320.935L333.359 320.823L330.58 332.013C330.519 332.208 330.42 332.389 330.289 332.546C330.158 332.703 329.997 332.832 329.816 332.926C329.635 333.02 329.438 333.078 329.235 333.095C329.032 333.112 328.827 333.089 328.633 333.026C328.676 333.088 325.546 332.252 325.546 332.252L323.437 337.139L328.966 338.524C329.994 338.783 331.002 339.054 331.993 339.309L330.235 346.402L334.478 347.466L336.22 340.449C337.378 340.765 338.503 341.057 339.604 341.332L337.869 348.316L342.117 349.379L343.875 342.301C351.119 343.678 356.567 343.122 358.857 336.541C360.704 331.241 358.766 328.183 354.955 326.189C357.731 325.543 359.821 323.709 360.379 319.92L360.38 319.92ZM350.673 333.594C349.359 338.894 340.479 336.03 337.598 335.311L339.931 325.915C342.81 326.637 352.043 328.067 350.675 333.594H350.673ZM351.986 319.843C350.788 324.664 343.396 322.215 340.997 321.614L343.112 313.093C345.511 313.693 353.235 314.814 351.986 319.843V319.843Z" fill="white"/>
<path d="M274.267 462C273.136 462.001 272.051 462.453 271.251 463.257C270.451 464.061 270.001 465.151 270 466.287V612.511C270.001 613.648 270.451 614.738 271.251 615.541C272.051 616.345 273.136 616.797 274.267 616.798H770.503C771.634 616.797 772.719 616.345 773.519 615.541C774.319 614.738 774.769 613.648 774.77 612.511V466.287C774.769 465.151 774.319 464.061 773.519 463.257C772.719 462.453 771.634 462.001 770.503 462L274.267 462Z" fill="#E6E6E6"/>
<path d="M281 607.311H764.384V474H281V607.311Z" fill="white"/>
<path d="M704.068 585C702.193 585 700.396 585.748 699.07 587.08C697.745 588.412 697 590.218 697 592.102C697 593.985 697.745 595.791 699.07 597.123C700.396 598.455 702.193 599.203 704.068 599.203H732.34C734.214 599.203 736.012 598.455 737.338 597.123C738.663 595.791 739.408 593.985 739.408 592.102C739.408 590.218 738.663 588.412 737.338 587.08C736.012 585.748 734.214 585 732.34 585H704.068V585Z" fill="#6217C3"/>
<path d="M739.365 567H413V568.868H739.365V567Z" fill="#E6E6E6"/>
<path d="M342.167 580.727C364.903 580.727 383.335 562.208 383.335 539.363C383.335 516.519 364.903 498 342.167 498C319.431 498 301 516.519 301 539.363C301 562.208 319.431 580.727 342.167 580.727Z" fill="#6217C3"/>
<path d="M412.032 550.742L411 549.188L444.914 526.471L468.171 537.687L501.621 516.214L502.074 516.407L568.163 544.734L621.154 518.58L672.61 539.539L737.266 482L738.498 483.4L672.98 541.707L621.226 520.626L568.217 546.789L501.796 518.32L468.299 539.822L445.065 528.616L412.032 550.742Z" fill="#3F3D56"/>
<path d="M416.044 585C414.441 585 412.904 585.64 411.77 586.779C410.637 587.917 410 589.462 410 591.073C410 592.683 410.637 594.228 411.77 595.367C412.904 596.505 414.441 597.145 416.044 597.145H479.271C480.874 597.145 482.411 596.505 483.545 595.367C484.678 594.228 485.315 592.683 485.315 591.073C485.315 589.462 484.678 587.917 483.545 586.779C482.411 585.64 480.874 585 479.271 585H416.044Z" fill="#E6E6E6"/>
<path d="M343.655 566.582L360.321 543L343.655 552.887L327 543L343.654 566.582H343.655Z" fill="white"/>
<path d="M343.654 542.659H343.655L360.311 532.767L343.655 505H343.654L327 532.767L343.654 542.659Z" fill="white"/>
<path d="M178.564 588.272L184.259 599.824L194.698 598.935L201.341 578.498L190.902 573.167L178.564 588.272Z" fill="#FFB8B8"/>
<path d="M142.726 614.877L142.501 622.927L158.635 623.815V614.041L142.726 614.877Z" fill="#FFB8B8"/>
<path d="M148.195 468.314L151.991 539.4L142.501 616.706L170.972 620.261L189.004 522.517L194.698 455.873L148.195 468.314Z" fill="#2F2E41"/>
<path d="M103.591 442.545C103.591 442.545 92.2023 512.743 115.928 535.846C139.654 558.949 171.921 599.824 171.921 599.824L194.698 573.166L136.807 515.409L148.195 476.311L194.698 455.874L187.106 407.002L118.775 406.113L103.591 442.545Z" fill="#2F2E41"/>
<path d="M159.584 279.935C171.115 279.935 180.463 271.182 180.463 260.386C180.463 249.589 171.115 240.837 159.584 240.837C148.053 240.837 138.705 249.589 138.705 260.386C138.705 271.182 148.053 279.935 159.584 279.935Z" fill="#FFB8B8"/>
<path d="M141.552 264.829C141.552 264.829 140.603 292.375 135.858 295.929C131.113 299.483 152.941 314.589 152.941 314.589L167.176 293.263V273.714L141.552 264.829Z" fill="#FFB8B8"/>
<path d="M151.042 302.149L139.52 285.859L133.01 294.152L123.52 319.032L131.113 415.887L175.717 416.776L181.412 305.703L167.176 289.709L151.042 302.149Z" fill="#D0CDE1"/>
<path d="M199.443 308.369L207.036 307.481C207.036 307.481 208.934 308.369 209.883 314.589C210.832 320.809 222.22 375.901 222.22 375.901L207.036 443.433L189.953 422.108L200.392 384.787L189.953 347.467L199.443 308.369Z" fill="#2F2E41"/>
<path d="M102.642 307.48H96.9473L82.7124 379.455L95.9985 435.437L109.285 414.999L105.488 392.784L107.387 373.236L114.03 361.684L102.642 307.48Z" fill="#2F2E41"/>
<path d="M187.106 596.269C187.106 596.269 181.412 594.492 181.412 598.046C181.412 601.601 185.208 612.264 185.208 612.264C185.208 612.264 179.514 645.141 188.055 643.364C196.596 641.587 203.239 626.481 204.188 622.038C205.138 617.595 209.883 594.492 209.883 594.492C209.883 594.492 217.475 577.609 212.73 576.721C207.985 575.832 194.698 572.278 194.698 572.278C194.698 572.278 202.29 594.492 187.106 596.269Z" fill="#2F2E41"/>
<path d="M159.584 623.815C159.584 623.815 144.399 614.929 141.552 622.038C139.664 627.223 138.391 632.587 137.756 638.033C137.756 638.033 133.96 649.584 149.144 647.807C164.329 646.03 162.431 646.03 163.38 640.698C164.329 635.367 159.584 623.815 159.584 623.815Z" fill="#2F2E41"/>
<path d="M147.246 260.386L151.043 259.497C151.043 259.497 153.89 244.391 160.533 246.169C167.176 247.946 184.259 249.723 184.259 242.614C184.259 235.505 168.125 229.285 158.635 230.174C149.144 231.063 133.011 233.728 133.96 247.057C134.909 260.386 141.033 273.352 141.033 273.352L141.527 265.449L147.246 260.386Z" fill="#2F2E41"/>
<path d="M167.176 312.812L151.042 302.149L167.176 289.709L172.777 296.002L167.176 312.812Z" fill="#D0CDE1"/>
<path d="M136.807 311.924L151.042 302.149L139.654 286.155L133.01 294.152L136.807 311.924Z" fill="#D0CDE1"/>
<path d="M206.087 307.481L175.717 295.929L168.6 291.042L147.246 379.456L133.011 339.469L137.281 288.376L97.8965 307.481L111.183 367.904L113.081 391.007L107.387 409.667C107.387 409.667 87.4571 422.996 94.1004 437.213C100.744 451.431 108.336 452.319 108.336 452.319C108.336 452.319 140.603 423.885 142.501 416.776C144.399 409.667 147.246 397.227 147.246 397.227C147.246 397.227 163.38 454.096 182.361 453.208C201.341 452.319 201.341 433.659 201.341 433.659L196.596 414.11L189.004 393.673L192.8 359.907L206.087 307.481Z" fill="#2F2E41"/>
<path d="M769.176 304.278C769.095 304.099 769.014 303.92 768.933 303.74C768.964 303.741 768.995 303.745 769.026 303.746L769.176 304.278Z" fill="#2F2E41"/>
<path d="M922.635 386.344L921.262 399.074L922.07 415.768L885.094 411.375L881.619 386.344L886.046 386.387L922.635 386.344Z" fill="#FFB6B6"/>
<path d="M890.439 344.504L899.226 339.233L903.438 332.732L916.438 334.732L932.33 345.384L932.174 369.545L922.321 394.604L881.025 389.333L879.456 380.494C879.456 380.494 868.034 365.152 880.335 356.366L890.439 344.504Z" fill="#6217C3"/>
<path d="M837.705 272.761C837.288 273.649 837.072 274.617 837.07 275.598C837.068 276.578 837.282 277.547 837.695 278.437C838.108 279.326 838.711 280.113 839.462 280.744C840.213 281.375 841.093 281.834 842.04 282.088L870.646 336.064L882.193 327.152L850.443 276.897C850.764 275.278 850.48 273.597 849.645 272.173C848.81 270.749 847.481 269.681 845.911 269.172C844.341 268.662 842.638 268.746 841.126 269.407C839.613 270.069 838.396 271.262 837.705 272.761V272.761Z" fill="#FFB6B6"/>
<path d="M884.63 354.303C884.63 354.303 881.979 356.654 878.21 350.162C875.192 344.965 860.14 321.693 858.009 313.625C856.84 313.658 855.693 313.302 854.749 312.611C853.805 311.92 853.118 310.935 852.796 309.811L868.963 303.536C872.478 305.293 871.502 307.729 870.611 308.989L876.632 318.021L896.661 340.497L886.577 352.637L884.63 354.303Z" fill="#6217C3"/>
<path d="M941.814 617.476H933.73L929.882 586.294H941.814V617.476Z" fill="#FFB6B6"/>
<path d="M946.081 631.483H940.283L939.248 626.009L936.598 631.483H921.222C920.485 631.483 919.767 631.247 919.173 630.81C918.579 630.373 918.141 629.758 917.922 629.055C917.702 628.351 917.714 627.596 917.954 626.899C918.194 626.202 918.651 625.6 919.258 625.182L931.537 616.701V611.168L944.452 611.939L946.081 631.483Z" fill="#2F2E41"/>
<path d="M896.404 617.476H888.32L884.472 586.294H896.404V617.476Z" fill="#FFB6B6"/>
<path d="M900.671 631.483H894.873L893.838 626.009L891.188 631.483H875.812C875.075 631.483 874.357 631.247 873.763 630.81C873.17 630.373 872.731 629.758 872.512 629.055C872.292 628.351 872.304 627.596 872.544 626.899C872.784 626.202 873.241 625.6 873.848 625.182L886.127 616.701V611.168L899.042 611.939L900.671 631.483Z" fill="#2F2E41"/>
<path d="M945.302 590.586H945.214L943.659 539.886C944.665 537.945 945.176 535.785 945.145 533.6C945.115 531.414 944.545 529.269 943.485 527.357L943.263 526.954L943.84 524.279C944.581 520.842 944.241 517.26 942.866 514.023L941.415 466.729C946.597 433.147 921.902 411.246 921.902 411.246H884.909L882.266 420.329L879.438 422.731L880.509 426.366L877.438 430.731L876.967 438.533C871.717 489.685 872.67 539.532 881.001 587.825L880.774 587.939C880.343 588.18 880.022 588.577 879.876 589.048C879.73 589.519 879.771 590.028 879.99 590.47C880.375 591.585 881.35 592.261 882.168 591.978L901.705 591.299C902.136 591.059 902.457 590.662 902.603 590.191C902.749 589.719 902.708 589.21 902.489 588.768C902.104 587.653 901.129 586.978 900.311 587.26L898.982 587.932L901.815 539.008L901.501 530.072L902.149 519.934L905.143 474.333L916.478 530.409L928.056 591.15C927.737 591.439 927.513 591.819 927.413 592.238C927.314 592.657 927.344 593.096 927.5 593.498C927.655 593.9 927.929 594.245 928.285 594.488C928.641 594.731 929.062 594.86 929.493 594.859H945.302C945.868 594.859 946.412 594.634 946.812 594.233C947.213 593.832 947.438 593.289 947.438 592.722C947.438 592.156 947.213 591.612 946.812 591.212C946.412 590.811 945.868 590.586 945.302 590.586V590.586Z" fill="#2F2E41"/>
<path d="M985.815 432.107C986.206 431.208 986.394 430.234 986.367 429.253C986.34 428.273 986.099 427.311 985.659 426.434C985.22 425.557 984.594 424.788 983.826 424.179C983.057 423.57 982.164 423.138 981.21 422.911L951.04 369.793L939.758 379.038L972.962 428.345C972.688 429.973 973.021 431.644 973.897 433.043C974.774 434.442 976.133 435.471 977.717 435.935C979.302 436.399 981.001 436.265 982.494 435.56C983.986 434.854 985.168 433.626 985.815 432.107V432.107Z" fill="#FFB6B6"/>
<path d="M929.815 345.347C929.815 345.347 932.396 342.919 936.353 349.298C939.522 354.405 961.961 383.851 964.327 391.853C965.495 391.786 966.651 392.109 967.615 392.772C968.579 393.435 969.294 394.399 969.65 395.514L953.672 402.258C950.108 400.604 948.447 397.51 949.301 396.225L943.019 387.372L919.466 360.18L927.918 347.068L929.815 345.347Z" fill="#6217C3"/>
<path d="M897.12 297.668C891.741 308.27 895.255 320.551 905.236 327.009C916.03 333.992 930.044 332.463 934.577 318.892C939.625 303.78 935.478 297.296 926.461 289.551C915.893 280.474 902.932 286.212 897.12 297.668Z" fill="#2F2E41"/>
<path d="M923.599 321.286C920.86 324.874 916.81 327.227 912.337 327.83C907.864 328.433 903.335 327.236 899.744 324.502C896.153 321.768 893.794 317.72 893.186 313.248C892.578 308.776 893.769 304.245 896.499 300.651L896.647 300.457C899.436 296.965 903.487 294.71 907.924 294.177C912.362 293.645 916.831 294.878 920.367 297.611C923.903 300.344 926.224 304.358 926.828 308.786C927.431 313.215 926.27 317.703 923.595 321.283L923.599 321.286Z" fill="#FFB6B6"/>
<path d="M891.907 295.951C894.675 298.585 898.048 300.496 901.73 301.517C902.468 300.663 903.343 299.938 904.319 299.372C903.852 300.344 903.532 301.38 903.369 302.446C905.011 305.853 911.718 308.303 918.127 310.808L926.617 295.825L915.38 289.458C906.35 283.215 895.721 285.879 891.907 295.951Z" fill="#2F2E41"/>
<path d="M933.021 289.57C933.841 289.268 934.723 289.176 935.587 289.302C936.451 289.428 937.27 289.769 937.969 290.292C939.337 291.332 940.443 292.678 941.199 294.221C942.574 296.718 943.561 299.41 944.128 302.203C944.613 304.62 944.531 307.542 942.362 308.803C940.553 309.855 937.966 309.193 936.303 307.788C934.762 306.315 933.593 304.496 932.892 302.482C932.204 300.483 931.183 298.615 929.871 296.956L931.37 297.656C930.896 296.218 930.675 294.709 930.717 293.196C930.752 292.443 930.982 291.712 931.386 291.076C931.791 290.44 932.354 289.921 933.021 289.57V289.57Z" fill="#2F2E41"/>
<path d="M913.585 291.533L925.641 298.365C927.255 299.279 928.673 300.503 929.815 301.966C930.956 303.428 931.798 305.102 932.292 306.89C932.787 308.678 932.925 310.546 932.697 312.387C932.47 314.228 931.882 316.007 930.968 317.621C928.277 322.369 923.913 325.943 918.728 327.644C913.542 329.346 907.909 329.053 902.928 326.823L913.945 317.098L899 324.712L895.809 322.904C911.837 319.99 914.929 307.418 913.585 291.533Z" fill="#2F2E41"/>
<path d="M797.162 102L757.5 168.033L797.297 191.529L797.162 102Z" fill="#8C8C8C"/>
<path d="M836.998 168.033L797.162 102L797.297 191.529L836.998 168.033Z" fill="#333333"/>
<path d="M757.5 168.033L797.249 149.916L797.297 191.529L757.5 168.033Z" fill="#383838"/>
<path d="M836.998 168.033L797.249 149.916L797.335 190.008L836.998 168.033Z" fill="#141414"/>
<path d="M836.901 175.595L797.2 199.091V231.5L836.901 175.595Z" fill="#333333"/>
<path d="M757.498 175.595L797.2 199.091V231.5L757.498 175.595Z" fill="#8C8C8C"/>
</svg>
