<?xml version="1.0" standalone="no"?>
<!DOCTYPE svg PUBLIC "-//W3C//DTD SVG 20010904//EN"
 "http://www.w3.org/TR/2001/REC-SVG-20010904/DTD/svg10.dtd">
<svg version="1.0" xmlns="http://www.w3.org/2000/svg"
 width="90.000000pt" height="90.000000pt" viewBox="0 0 90.000000 90.000000"
 preserveAspectRatio="xMidYMid meet">
<metadata>
Created by potrace 1.14, written by Peter Selinger 2001-2017
</metadata>
<g transform="translate(0.000000,90.000000) scale(0.100000,-0.100000)"
fill="#000000" stroke="none">
<path d="M260 784 l-195 -111 -2 -219 c-2 -189 0 -221 14 -236 9 -10 19 -18
24 -18 4 0 82 -43 174 -96 l168 -97 51 26 c58 30 132 70 257 141 l86 48 -1
226 -1 225 -75 45 c-41 24 -127 74 -190 111 l-115 67 -195 -112z m356 -40 c79
-47 144 -87 144 -89 0 -2 -55 -36 -123 -76 -67 -40 -137 -81 -155 -91 l-32
-20 -53 31 c-28 17 -98 56 -154 88 -57 32 -103 60 -103 63 0 3 14 14 30 23
l30 18 123 -74 124 -74 91 51 c50 28 92 53 92 56 0 3 -54 37 -120 75 -66 38
-120 71 -120 74 0 11 55 39 68 35 8 -2 78 -43 158 -90z m162 -200 c-11 -11
-68 -45 -208 -125 -14 -8 -27 -15 -29 -16 -7 -5 -8 -63 -1 -63 4 0 56 27 114
61 144 81 138 79 134 33 -3 -37 -5 -39 -130 -112 l-128 -75 0 -71 c0 -68 -1
-72 -29 -89 -22 -13 -30 -14 -33 -4 -2 6 -4 88 -4 182 l1 170 85 49 c47 27
119 67 160 90 l75 42 3 -29 c2 -17 -2 -36 -10 -43z m-506 -18 l153 -84 3 -186
c1 -102 0 -186 -4 -186 -3 0 -18 9 -34 20 l-27 19 -1 136 c0 74 -1 139 -1 145
-1 5 -14 16 -30 25 l-30 15 0 -53 c1 -28 0 -93 0 -144 l-1 -92 -33 19 -34 20
1 144 1 145 -27 16 c-33 19 -30 34 -30 -142 -1 -68 -4 -123 -7 -123 -3 0 -19
9 -36 20 l-30 19 0 176 c0 96 3 175 7 175 4 0 76 -38 160 -84z"/>
</g>
</svg>
