<svg width="169" height="162" viewBox="0 0 169 162" fill="none" xmlns="http://www.w3.org/2000/svg">
<path d="M18.4222 64.3153C18.5245 63.9411 18.6411 63.5661 18.7786 63.1959L20.4281 58.2063C20.9799 56.8696 21.3992 55.9916 21.4034 55.9803L21.4528 55.8773L21.5669 55.8443C21.5845 55.8411 23.5082 55.2995 25.3581 54.8769C26.2948 54.6564 27.2214 54.4617 27.9099 54.3225C27.9158 54.3217 28.5984 54.1832 28.9758 54.1366L30.3946 51.6997C30.559 51.4285 30.7217 51.1404 30.8919 50.841C31.1972 50.3002 31.541 49.6918 31.9485 49.0939L35.0236 44.8495C35.2568 44.538 35.5117 44.2572 35.7591 43.9852C35.8958 43.8347 36.0299 43.6866 36.1582 43.5361L38.1792 41.2586C38.8375 40.4884 39.3189 39.9838 39.692 39.674L40.2841 39.1276L40.6455 39.4833L40.0425 40.0402C39.6811 40.3436 39.2199 40.8264 38.5784 41.5773L36.5566 43.8564C36.4283 44.0053 36.2907 44.1558 36.1515 44.3119C35.9125 44.5743 35.6651 44.8463 35.4496 45.1344L32.3804 49.3707C31.9888 49.9453 31.6643 50.5207 31.349 51.0768C31.1762 51.3818 31.0102 51.6748 30.8466 51.946L29.2701 54.654L29.1242 54.6178C28.9883 54.6355 28.564 54.6943 28.0215 54.8102C27.3321 54.9494 26.4114 55.1417 25.4805 55.3598C23.9015 55.7228 22.2679 56.1702 21.8277 56.2925C21.7036 56.5581 21.3522 57.3275 20.9178 58.3737L19.2717 63.3544C18.9396 64.2469 18.7316 65.17 18.5572 66.0367L17.5501 70.6722C17.6138 70.7857 17.7513 71.0022 17.9543 71.2854L19.0495 72.8258L20.7065 75.0413L20.4583 77.285C20.3987 78.0866 20.3996 79.0821 20.4004 80.1339C20.4029 80.7455 20.4038 81.3797 20.3929 82.0122C20.3249 83.3457 20.4608 84.6503 20.5815 85.7979C20.6168 86.1254 20.6495 86.4361 20.6746 86.7258L20.8943 88.9679L20.4289 89.5892C20.247 89.8298 20.0214 90.1316 19.8419 90.4253L18.9849 91.7805L19.4771 94.2069C19.54 94.4637 19.5929 94.7494 19.6474 95.0487C19.7505 95.5984 19.8578 96.1674 20.0566 96.7492L20.9564 99.6504C21.0713 99.9916 21.1769 100.345 21.2818 100.696C21.473 101.336 21.6541 101.938 21.8948 102.505L23.9686 107.406L23.7212 108.16L23.3422 109.598L22.8399 111.67L24.4843 114.673L26.4978 117.653C26.7082 117.949 26.9145 118.26 27.125 118.575C27.6709 119.388 28.2353 120.233 28.9129 120.987L29.4907 121.686C31.1175 123.665 32.6546 125.531 34.066 126.808L36.5389 129.259C36.6765 129.273 36.9775 129.297 37.3918 129.3L39.5604 129.324C41.0966 129.33 42.5986 129.288 42.6136 129.288L42.7134 129.283L44.3378 130.61C44.9483 131.049 45.7332 131.568 46.5634 132.118C47.0263 132.424 47.5017 132.739 47.9764 133.059C48.2129 133.212 48.451 133.376 48.6883 133.535C49.1169 133.826 49.5227 134.101 49.9336 134.339L53.4314 136.207L56.0578 135.587L58.8394 134.682L60.4377 135.345C60.7346 135.454 61.0675 135.6 61.4214 135.754C62.1224 136.058 62.9157 136.403 63.7527 136.611L68.7766 138.14L68.6198 138.614L63.6093 137.088C62.7438 136.874 61.9271 136.519 61.2084 136.207C60.8637 136.055 60.5392 135.915 60.2407 135.804L58.8159 135.212L56.202 136.064L53.3559 136.736L49.6737 134.767C49.2385 134.512 48.8057 134.22 48.3898 133.938C48.1567 133.78 47.9202 133.621 47.682 133.468C47.2049 133.147 46.7302 132.83 46.2682 132.525C45.4346 131.97 44.6464 131.449 44.0149 130.998L42.5298 129.787C42.1675 129.794 40.8753 129.827 39.557 129.82L37.3884 129.796C36.7721 129.79 36.3964 129.739 36.3805 129.739L36.2924 129.727L33.702 127.16C32.2714 125.868 30.7225 123.984 29.0839 121.991L28.5145 121.3C27.8202 120.527 27.2466 119.668 26.6898 118.841C26.4818 118.53 26.2755 118.223 26.0659 117.925L24.039 114.922L22.2906 111.733L23.2222 108.021L23.4185 107.425L21.4126 102.688C21.1635 102.098 20.969 101.454 20.7828 100.829C20.6797 100.485 20.5765 100.136 20.4625 99.7904L19.5627 96.8933C19.3547 96.2857 19.2398 95.6724 19.1392 95.1316C19.0855 94.8411 19.0344 94.5659 18.9715 94.3091L18.4381 91.684L19.3983 90.167C19.5887 89.8563 19.8226 89.5449 20.0096 89.2954L20.361 88.8262L20.1589 86.7684C20.1346 86.4771 20.101 86.1705 20.0675 85.847C19.9459 84.6768 19.8075 83.3578 19.8763 81.9953C19.8872 81.3724 19.8855 80.7431 19.8855 80.1339C19.8838 79.0724 19.883 78.0664 19.9451 77.2391L20.1723 75.1773L18.6268 73.1074L17.5299 71.5647C17.218 71.1293 17.0545 70.8436 17.0486 70.8299L17.0042 70.7511L18.0499 65.9361C18.153 65.4122 18.2712 64.865 18.4222 64.3153Z" fill="url(#paint0_linear_57_306)"/>
<path d="M68.7471 138.135L74.7757 139.344C75.4575 139.432 76.1895 139.503 76.9334 139.577C77.3862 139.618 77.8432 139.662 78.2986 139.713C78.7288 139.744 79.1682 139.795 79.6026 139.846C80.3749 139.935 81.1045 140.023 81.8148 140.001L87.1406 140.026L88.0807 139.943L88.1687 140.043C88.1804 140.055 89.3855 141.42 90.6987 142.759C91.7796 143.875 92.9411 144.976 93.3688 145.377L93.9289 145.328C94.1906 145.294 94.5344 145.228 94.9352 145.151C95.165 145.108 95.4124 145.06 95.6765 145.014C96.1679 144.912 96.7206 144.815 97.3134 144.709C98.4556 144.5 99.7495 144.266 101.014 143.963L106.243 142.469C106.715 142.352 107.1 142.193 107.438 142.055C107.616 141.98 107.775 141.917 107.918 141.869L108.448 141.664L109.668 139.36L110.872 136.925L110.983 136.891C110.984 136.891 111.183 136.83 111.492 136.665L112.945 135.933C113.355 135.718 113.83 135.485 114.338 135.236C115.259 134.787 116.302 134.274 117.285 133.687L121.434 131.099C121.814 130.882 122.105 130.651 122.364 130.447C122.496 130.339 122.618 130.244 122.728 130.166L123.28 129.744L125.128 129.858L126.81 129.937L127.309 129.555C127.394 129.486 127.496 129.411 127.603 129.33C127.933 129.082 128.343 128.773 128.754 128.365C129.149 127.995 129.586 127.591 130.052 127.161C130.956 126.327 131.98 125.381 132.975 124.42L136.782 120.128C137.109 119.751 137.362 119.392 137.586 119.074C137.703 118.908 137.809 118.758 137.906 118.635L138.375 117.982L140.706 117.413L142.894 116.826C142.973 116.723 143.146 116.486 143.377 116.117L146.469 110.79C146.854 110.033 147.216 109.221 147.597 108.365C147.791 107.932 147.985 107.497 148.184 107.065C149.194 105.045 149.9 102.874 150.465 101.131C150.608 100.689 150.745 100.269 150.878 99.8764C151.462 98.2628 151.725 97.0564 151.808 96.6356C151.643 96.3313 151.009 95.1676 150.37 94.0715C149.744 92.9899 149.103 91.9502 148.916 91.6468L148.771 91.6106L148.833 91.3675C148.88 91.18 149.041 90.4895 149.12 89.4876L149.59 85.2142C149.69 84.5624 149.69 83.9113 149.69 83.282L149.71 79.1012C149.424 78.7962 148.65 77.9978 147.776 77.2502L145.238 75.058L145.602 75.0226C145.524 73.7181 144.169 66.0985 143.786 65.5239L143.971 65.4088L143.898 65.1118L144.186 65.2068C144.552 65.6156 146.103 73.7406 146.114 75.1457L148.12 76.8792C149.03 77.6542 149.831 78.4871 150.111 78.7841L150.232 78.8147L150.21 83.282C150.21 83.929 150.209 84.6002 150.104 85.277L149.637 89.5326C149.566 90.4428 149.426 91.1124 149.36 91.3925C149.548 91.6943 150.194 92.7413 150.823 93.8301C151.566 95.1065 152.302 96.4682 152.309 96.4826L152.418 96.6854L152.313 96.7506C152.221 97.215 151.949 98.4334 151.368 100.038C151.239 100.424 151.103 100.841 150.959 101.281C150.389 103.042 149.679 105.231 148.656 107.274C148.459 107.699 148.267 108.134 148.074 108.563C147.69 109.427 147.327 110.241 146.928 111.023L143.825 116.37C143.308 117.198 143.191 117.314 143.057 117.305L140.84 117.898L138.692 118.422L138.327 118.926C138.227 119.054 138.127 119.197 138.015 119.355C137.796 119.667 137.522 120.052 137.178 120.451L133.356 124.759C132.343 125.739 131.316 126.685 130.41 127.523C129.944 127.953 129.509 128.353 129.121 128.718C128.69 129.147 128.265 129.466 127.923 129.725C127.817 129.806 127.72 129.877 127.635 129.945L126.978 130.447L123.446 130.257L123.039 130.567C122.928 130.644 122.816 130.734 122.693 130.833C122.434 131.039 122.112 131.296 121.704 131.526L117.563 134.112C116.556 134.713 115.502 135.228 114.571 135.683C114.071 135.928 113.603 136.158 113.19 136.378L111.738 137.108C111.524 137.223 111.35 137.293 111.246 137.334L110.133 139.583L108.822 142.059L108.099 142.339C107.954 142.388 107.807 142.449 107.642 142.517C107.302 142.655 106.879 142.829 106.379 142.952L101.15 144.445C99.8602 144.756 98.5554 144.993 97.4074 145.2C96.8195 145.305 96.2677 145.407 95.7755 145.505C95.5063 145.554 95.2623 145.599 95.0333 145.645C94.6208 145.722 94.266 145.79 93.9876 145.826L93.1759 145.9L93.0887 145.818C92.7197 145.475 91.4736 144.297 90.3172 143.103C89.2018 141.964 88.1603 140.805 87.8576 140.467L87.1599 140.53L81.8215 140.503C81.0802 140.525 80.2969 140.434 79.5388 140.344C79.1112 140.294 78.6801 140.244 78.2474 140.212C77.7854 140.162 77.33 140.119 76.8797 140.076C76.13 140.004 75.3912 139.93 74.686 139.838L68.6406 138.628L68.7471 138.135Z" fill="url(#paint1_linear_57_306)"/>
<path d="M14.3817 63.2207C15.8266 57.9325 17.6614 53.6302 19.196 50.5576C22.2115 44.9298 25.5231 40.0239 28.5252 36.7308C29.0208 36.1787 29.4754 35.6613 29.8888 35.1921C30.5923 34.3953 31.1768 33.7338 31.6506 33.2413L32.8892 32.0929L33.6616 32.8607L32.4448 33.9881C32.0012 34.4477 31.4284 35.0987 30.7383 35.881C30.3223 36.3542 29.8653 36.8724 29.3647 37.431C26.417 40.6621 23.1608 45.4924 20.1914 51.0324C17.8501 55.7146 14.7926 63.3374 13.5599 72.9826C12.4462 81.6218 13.1431 90.6376 15.5783 99.0556C17.9641 107.455 22.1461 115.561 27.6732 122.502C32.7794 128.915 38.7895 134.311 45.0512 138.11C46.1573 138.912 47.3053 139.52 48.4148 140.103L49.3582 140.608C49.8605 140.863 50.3594 141.136 50.8483 141.405C51.7054 141.873 52.5138 142.316 53.3264 142.658L57.0144 144.186C57.3893 144.33 57.7583 144.488 58.1189 144.643C58.8132 144.939 59.469 145.221 60.0946 145.377L66.2951 147.262L65.9588 148.281L59.7876 146.401C59.1 146.234 58.4031 145.935 57.6643 145.616C57.3163 145.468 56.9574 145.315 56.5834 145.171L52.8844 143.636C52.0148 143.271 51.1796 142.815 50.2957 142.331C49.8169 142.069 49.328 141.801 48.8232 141.543L47.8781 141.04C46.7334 140.435 45.5502 139.811 44.4181 138.984C38.0826 135.15 31.9727 129.664 26.7877 123.152C21.1751 116.101 16.9276 107.867 14.5058 99.3372C12.0328 90.7889 11.3242 81.629 12.4571 72.8506C12.9033 69.3683 13.5834 66.1444 14.3817 63.2207Z" fill="url(#paint2_linear_57_306)"/>
<path d="M10.0579 67.292L14.4118 68.1668L14.2584 68.875C14.2349 68.9965 14.1888 69.2082 14.1343 69.4472C14.0529 69.8013 13.9531 70.2342 13.8768 70.7429C13.829 71.2547 13.7485 71.9573 13.6588 72.7411C13.4869 74.2331 13.2932 75.9232 13.1464 77.8554C12.842 84.7209 13.751 92.4636 15.6454 99.0346L16.6844 102.383C16.9108 103.129 17.1263 103.831 17.4173 104.443L19.7025 109.814L23.0669 115.902L24.8372 118.514C26.1185 120.553 27.4317 122.119 28.485 123.377L30.5236 125.83C30.7207 126.077 30.8364 126.2 30.8691 126.236L27.6774 129.209C27.6774 129.209 27.4225 128.967 27.0166 128.459L25.02 126.056C23.9407 124.767 22.4623 123.005 21.0677 120.78L18.7976 117.361L15.6227 111.52L13.3317 106.133C12.946 105.321 12.6768 104.439 12.416 103.587L11.3703 100.214C9.34508 93.1895 8.37819 84.9648 8.70607 77.6108C8.86205 75.5353 9.07002 73.7277 9.23774 72.2759C9.32495 71.517 9.40126 70.8394 9.45913 70.2463C9.56647 69.5083 9.68806 68.9699 9.78953 68.5313C9.82894 68.3519 9.86752 68.1941 9.89184 68.0589L10.0579 67.292Z" fill="url(#paint3_linear_57_306)"/>
<path d="M32.8901 32.0937L36.4927 28.7482L41.8588 24.6479C42.247 24.3872 42.6219 24.1546 43.0043 23.9188L47.4722 21.1302C48.388 20.6216 49.3314 20.1541 50.3041 19.6744C50.8576 19.3992 51.4203 19.1207 51.988 18.8294C57.0925 16.3942 65.2359 13.2435 75.1228 12.0178C84.1971 10.8501 93.7578 11.4303 102.767 13.6974C111.775 15.9644 120.401 19.9617 127.715 25.2539C135.699 30.9775 141.182 37.5573 144.377 42.0696C144.73 42.6048 145.079 43.1126 145.42 43.6124C146.022 44.4888 146.605 45.3402 147.129 46.1893L149.609 50.7491C149.822 51.1354 150.03 51.5145 150.22 51.8903L152.911 58.3349L154.243 62.6348L153.177 62.9398L151.747 58.3285L149.205 52.3257C149.035 51.9925 148.833 51.6231 148.626 51.2465L146.157 46.7076C145.658 45.8988 145.082 45.061 144.492 44.1975C144.147 43.6921 143.796 43.1818 143.448 42.6579C140.312 38.2244 134.911 31.7428 127.047 26.107C119.847 20.8977 111.354 16.9639 102.486 14.7299C93.6152 12.4999 84.2047 11.9277 75.2687 13.0761C65.532 14.2824 57.5126 17.3856 52.4987 19.7782C51.9419 20.0639 51.375 20.344 50.8157 20.6208C49.8597 21.0948 48.9314 21.5544 48.0559 22.0388L43.6097 24.8153C43.2366 25.0463 42.8718 25.2732 42.5246 25.5018L37.0243 29.7437L33.6641 32.8614L32.8901 32.0937Z" fill="url(#paint4_linear_57_306)"/>
<path d="M69.3584 9.79415L72.6607 9.17769C73.0364 9.10526 73.4364 9.0264 73.8624 8.98213L79.9547 8.42845C84.6399 8.21357 93.7871 8.22967 103.588 10.6625C113.386 13.1621 121.363 17.4556 125.247 19.7959L130.329 23.1799C130.711 23.4415 131.021 23.6982 131.311 23.9404L133.869 26.0296L130.986 29.2833L128.79 27.4879C128.686 27.4058 128.54 27.2859 128.391 27.1603C128.198 27.0026 127.995 26.8296 127.761 26.6678L122.795 23.357C116.637 19.6502 109.193 16.51 102.461 14.7918C95.7293 13.1219 87.637 12.3517 80.2709 12.6865L74.3186 13.2297C74.0712 13.2571 73.8088 13.3126 73.558 13.3609C73.3626 13.3995 73.1739 13.4357 72.9903 13.4671L70.2104 13.9886L69.3584 9.79415Z" fill="url(#paint5_linear_57_306)"/>
<path d="M66.2424 147.249L72.5787 148.519C73.2336 148.686 73.9498 148.749 74.7053 148.818C75.097 148.852 75.5012 148.889 75.9146 148.941L79.8953 149.346C80.7775 149.43 81.7084 149.425 82.6945 149.421C83.2581 149.416 83.8316 149.414 84.417 149.426L85.4803 149.433C86.7466 149.447 88.0564 149.458 89.3822 149.283C96.8305 148.919 104.826 147.048 112.554 143.865C120.919 140.42 128.708 135.327 135.081 129.134C141.507 122.944 146.726 115.417 150.173 107.366C154.031 98.3811 155.265 90.2996 155.621 85.104C155.867 78.8928 155.499 73.15 154.584 68.9507C154.432 68.2231 154.299 67.5568 154.178 66.9484C153.977 65.9416 153.811 65.1055 153.653 64.4681L153.177 62.9406L154.243 62.6356L154.727 64.1896C154.897 64.8713 155.066 65.7227 155.272 66.7488C155.391 67.3524 155.525 68.0171 155.675 68.7382C156.606 73.0156 156.981 78.8493 156.733 85.1571C156.371 90.4493 155.118 98.6531 151.203 107.77C147.701 115.953 142.4 123.6 135.871 129.885C129.401 136.175 121.488 141.349 112.993 144.849C105.145 148.081 97.0167 149.982 89.4887 150.344C88.1269 150.527 86.7767 150.514 85.4702 150.502L84.4052 150.495C83.8174 150.482 83.2539 150.486 82.7021 150.488C81.6849 150.493 80.7247 150.498 79.7813 150.406L75.7846 150C75.372 149.95 74.9812 149.915 74.6014 149.879C73.7955 149.81 73.0366 149.742 72.3212 149.557L66.0134 148.295L66.2424 147.249Z" fill="url(#paint6_linear_57_306)"/>
<path d="M106.427 146.889L107.846 145.618C107.883 145.607 108.053 145.553 108.331 145.439L111.392 144.248C112.957 143.649 114.903 142.903 116.997 141.763L121.335 139.465L125.989 136.563L130.659 133.012C131.289 132.567 131.832 132.061 132.406 131.522L135.066 129.053C140.046 124.25 144.797 117.932 148.073 111.748C148.906 110.048 149.602 108.481 150.218 107.096C150.537 106.376 150.825 105.729 151.086 105.169C151.239 104.785 151.373 104.361 151.483 104.013C151.558 103.78 151.624 103.574 151.687 103.401L151.895 102.769L156.137 104.057L155.909 104.747C155.843 104.934 155.794 105.088 155.738 105.263C155.602 105.693 155.432 106.22 155.191 106.814C154.897 107.451 154.62 108.076 154.311 108.771C153.712 110.119 152.967 111.795 152.069 113.626C148.563 120.248 143.516 126.957 138.189 132.093L135.511 134.581C134.851 135.198 134.17 135.835 133.353 136.408L128.502 140.086L121.301 144.421L119.125 145.511C116.835 146.761 114.642 147.601 113.044 148.213L110.043 149.381C109.569 149.574 109.253 149.67 109.183 149.691L108.502 147.66L106.427 146.889Z" fill="url(#paint7_linear_57_306)"/>
<path d="M65.3417 140.596L65.1375 141.213L67.6899 141.992L67.8942 141.375L65.3417 140.596Z" fill="url(#paint8_linear_57_306)"/>
<path d="M55.6191 137.699L55.8967 137.107C56.0149 137.159 56.1491 137.213 56.2942 137.269L59.4019 138.557L59.1336 139.151L56.0351 137.867C55.89 137.811 55.7466 137.754 55.6191 137.699ZM61.5126 140.114L61.7156 139.496L62.9307 139.865L62.7277 140.482L61.5126 140.114Z" fill="url(#paint9_linear_57_306)"/>
<path d="M20.0072 68.673L20.668 68.8017L20.5305 69.4399C20.4978 69.6307 20.4416 69.8656 20.3803 70.1272C20.2646 70.6157 20.1221 71.2233 20.0424 71.9323C20.0307 72.0691 20.0181 72.2188 20.0038 72.3725L19.3304 72.3146C19.3455 72.1633 19.359 72.0168 19.3707 71.8727C19.4554 71.1171 19.6038 70.4893 19.7212 69.9856C19.7799 69.7353 19.8319 69.5132 19.8671 69.3192L20.0072 68.673ZM19.0504 74.7369L19.7212 74.8061C19.6759 75.1973 19.6307 75.5996 19.5896 76.0197L18.917 75.9562C18.9606 75.5353 19.0051 75.128 19.0504 74.7369ZM18.7359 78.4139L19.4101 78.4405C19.3715 79.337 19.3682 80.1804 19.3975 81.0246C19.3925 81.7698 19.4026 82.5271 19.4319 83.3053L18.7585 83.3271C18.7283 82.5432 18.7174 81.7755 18.7225 81.0359C18.6923 80.1877 18.6956 79.3257 18.7359 78.4139ZM18.8575 85.17L19.5309 85.1265C19.6147 86.3208 19.7397 87.5392 19.9007 88.7569L19.2315 88.8373C19.0688 87.6109 18.943 86.3763 18.8575 85.17ZM19.6005 91.2677L20.2655 91.1639C20.3334 91.5615 20.4063 91.9623 20.4843 92.3622L19.8202 92.4797C19.7422 92.0757 19.6692 91.6709 19.6005 91.2677ZM20.33 94.8884L20.9892 94.7436C21.3598 96.3402 21.7925 97.9232 22.2772 99.4507L21.6315 99.639C21.1426 98.0979 20.7057 96.4988 20.33 94.8884ZM22.2194 101.394L22.86 101.187C23.2634 102.341 23.7087 103.49 24.1833 104.605L23.5594 104.852C23.0772 103.723 22.6261 102.562 22.2194 101.394ZM24.5808 107.109L25.1921 106.834C25.3506 107.161 25.5116 107.485 25.6743 107.81L25.7372 107.917L25.1435 108.225L25.0739 108.104C24.902 107.763 24.7393 107.437 24.5808 107.109ZM26.3175 110.388L26.9171 110.095C27.7414 111.638 28.4987 113.02 29.4345 114.285L28.8844 114.662C27.9226 113.359 27.1527 111.956 26.3175 110.388ZM29.9209 116.183L30.4861 115.83L31.5913 117.461L32.6882 118.786L32.1599 119.187L30.8165 117.507L29.9209 116.183ZM33.7264 121.11L34.2605 120.713C34.5188 121.032 34.7838 121.345 35.0547 121.65L34.5406 122.07C34.2631 121.757 33.9914 121.438 33.7264 121.11ZM36.2715 123.89L36.7578 123.441C37.0639 123.747 37.3708 124.047 37.6736 124.349C38.0065 124.673 38.3344 124.997 38.6564 125.321L39.8187 126.476C39.973 126.613 40.1449 126.753 40.3159 126.893L39.879 127.387C39.6996 127.242 39.5235 127.092 39.3491 126.937L38.17 125.77C37.8488 125.448 37.5226 125.125 37.1931 124.799C36.8845 124.5 36.5775 124.198 36.2715 123.89ZM41.3315 128.575L41.7692 128.08L43.3726 129.391C43.7684 129.742 44.1902 130.081 44.674 130.434L44.2648 130.95C43.7642 130.583 43.3265 130.23 42.9239 129.874L41.3315 128.575ZM46.3638 132.364L46.7445 131.831C47.0674 132.042 47.381 132.25 47.6787 132.46L47.7911 132.536L47.402 133.063L47.2896 132.989C46.9885 132.776 46.6808 132.573 46.3638 132.364ZM49.5169 134.453L49.8825 133.907C50.3538 134.197 50.7596 134.423 51.1219 134.595L54.3035 136.294L53.9748 136.861L50.8083 135.17C50.4368 134.993 50.0099 134.756 49.5169 134.453Z" fill="url(#paint10_linear_57_306)"/>
<path d="M20.8053 65.0104L21.4652 65.1408L20.9185 67.6574L20.2578 67.527L20.8053 65.0104Z" fill="url(#paint11_linear_57_306)"/>
<path d="M20.8137 64.9767L21.6238 62.5277L22.2662 62.7257L21.4561 65.1747L20.8137 64.9767Z" fill="url(#paint12_linear_57_306)"/>
<path d="M22.387 60.2164L22.771 59.0503L23.4142 59.2442L23.0293 60.412L22.387 60.2164ZM23.7756 56.7688L25.1132 53.7952C25.1702 53.6544 25.2314 53.5184 25.2876 53.3953L25.904 53.6616C25.8495 53.7775 25.7941 53.9031 25.7362 54.0415L24.3937 57.0231L23.7756 56.7688Z" fill="url(#paint13_linear_57_306)"/>
<path d="M26.1614 51.8162L27.9249 48.779C28.1086 48.4209 28.3543 48.0129 28.6713 47.5373L29.239 47.8873C28.9362 48.3412 28.7014 48.7316 28.522 49.0792L26.7509 52.1301L26.1614 51.8162ZM30.1178 45.5092L30.1966 45.4014C30.4155 45.1117 30.6285 44.8147 30.8457 44.5137L31.4025 44.8791C31.1803 45.1897 30.9648 45.4875 30.7467 45.7756L30.6679 45.8835L30.1178 45.5092ZM32.3199 42.501C32.7006 42.0214 33.0663 41.5997 33.4411 41.2118L34.7963 39.6827L35.3103 40.1028L33.9451 41.6415C33.5753 42.0246 33.2231 42.4294 32.8575 42.8913L32.3199 42.501ZM36.0323 38.2896C36.1858 38.115 36.3401 37.9452 36.5011 37.7786L37.7187 36.6495C38.0542 36.3413 38.3904 36.0258 38.7284 35.7087C39.0412 35.419 39.3565 35.1236 39.6768 34.8283L40.1439 35.2943C39.8261 35.5888 39.5125 35.8826 39.1997 36.1739C38.86 36.491 38.5238 36.808 38.1875 37.1163L36.9833 38.2309C36.8416 38.3782 36.6931 38.5439 36.5472 38.7065L36.0323 38.2896ZM41.5737 33.1656C41.8991 32.8993 42.2303 32.6401 42.5741 32.3858L42.9867 32.896C42.653 33.1447 42.3284 33.3974 42.0114 33.6582L41.5737 33.1656ZM44.5758 30.8825L46.3276 29.5924L47.7062 28.7329L48.0744 29.2762L46.3737 30.3377L44.9943 31.3887L44.5758 30.8825ZM49.2945 27.7382C50.6522 26.8136 52.113 26.074 53.7466 25.274L54.0535 25.8494C52.4459 26.6397 51.0069 27.3664 49.6853 28.2654L49.2945 27.7382ZM55.9973 24.1498L56.1256 24.0806C56.4795 23.9164 56.8216 23.7603 57.1638 23.609L57.4489 24.1948C57.1084 24.3485 56.7697 24.4998 56.4325 24.6584L56.3193 24.7195L55.9973 24.1498ZM59.516 22.6279C60.6917 22.1668 61.9035 21.733 63.1186 21.3403L63.3332 21.956C62.1316 22.3431 60.9332 22.772 59.7709 23.2259L59.516 22.6279ZM64.9467 20.7786C66.5542 20.3086 68.2197 19.8893 69.8977 19.5296L70.0478 20.1605C68.384 20.5186 66.7337 20.9339 65.1429 21.3999L64.9467 20.7786ZM72.4067 19.0395C72.8294 18.9646 73.2495 18.8946 73.6679 18.8294L73.777 19.4684C73.3627 19.5336 72.9451 19.6036 72.5283 19.6776L72.4067 19.0395ZM76.2013 18.4745C77.481 18.3168 78.7665 18.1977 80.0252 18.1148L80.0705 18.7618C78.8252 18.8447 77.5539 18.963 76.286 19.1175L76.2013 18.4745ZM81.9439 18.0198C82.7632 17.9933 83.5615 17.9804 84.3339 17.986C85.2152 17.957 86.1142 17.9603 87.0643 17.9981L87.0358 18.6459C86.1033 18.6081 85.2228 18.6057 84.3439 18.6339C83.5674 18.6274 82.7783 18.6379 81.9682 18.6677L81.9439 18.0198ZM89.622 18.1743C90.0631 18.2138 90.4849 18.258 90.895 18.3015L90.8203 18.9437C90.4161 18.9018 89.9951 18.8576 89.5574 18.819L89.622 18.1743ZM93.4199 18.5703C93.5767 18.5864 93.731 18.5968 93.8786 18.6081C94.6677 18.691 95.3218 18.8318 95.8459 18.9461C96.1076 19.0016 96.3382 19.0523 96.5386 19.0845L97.217 19.2213L97.0761 19.8531L96.4145 19.7203C96.2166 19.6881 95.9726 19.6366 95.6967 19.5779C95.1902 19.466 94.5562 19.3308 93.8182 19.2519C93.6765 19.2423 93.5189 19.2302 93.3579 19.2141L93.4199 18.5703Z" fill="url(#paint14_linear_57_306)"/>
<path d="M98.411 19.4556L98.2734 20.089L100.896 20.6136L101.033 19.9802L98.411 19.4556Z" fill="url(#paint15_linear_57_306)"/>
<path d="M101.063 19.9907L100.859 20.6075L103.412 21.3847L103.616 20.7679L101.063 19.9907Z" fill="url(#paint16_linear_57_306)"/>
<path d="M105.822 22.1219L106.025 21.5038L107.24 21.8716L107.037 22.488L105.822 22.1219ZM109.351 23.4304L109.62 22.8349L112.718 24.1185C112.863 24.1732 113.004 24.2328 113.133 24.2883L112.857 24.8782C112.737 24.8259 112.604 24.7728 112.459 24.7188L109.351 23.4304Z" fill="url(#paint17_linear_57_306)"/>
<path d="M114.451 25.6895L114.779 25.1245L117.944 26.8169C118.316 26.9916 118.743 27.229 119.236 27.5324L118.872 28.078C118.4 27.7883 117.994 27.5622 117.631 27.3891L114.451 25.6895ZM120.961 29.451L121.351 28.9214L121.463 28.9979C121.764 29.2087 122.072 29.4123 122.388 29.6208L122.006 30.1559C121.684 29.9419 121.371 29.7334 121.072 29.5266L120.961 29.451ZM124.078 31.5538L124.488 31.038C124.988 31.4033 125.426 31.7542 125.829 32.1123L127.42 33.4129L126.983 33.9046L125.381 32.5968C124.985 32.2443 124.562 31.9071 124.078 31.5538ZM128.438 35.0924L128.875 34.5991C129.054 34.7456 129.231 34.892 129.406 35.0473L130.583 36.2183C130.905 36.5402 131.231 36.8629 131.563 37.1856C131.867 37.4874 132.174 37.7892 132.481 38.0958L131.995 38.5433C131.689 38.2391 131.383 37.9373 131.08 37.6379C130.748 37.3112 130.42 36.9876 130.097 36.6673L128.935 35.5109C128.78 35.3757 128.609 35.2316 128.438 35.0924ZM133.699 40.3363L134.212 39.9178C134.489 40.2285 134.761 40.548 135.025 40.8771L134.492 41.2731C134.234 40.9511 133.969 40.6413 133.699 40.3363ZM136.064 43.1981L136.593 42.7973L137.934 44.4793L138.832 45.8023L138.266 46.1556L137.162 44.5235L136.064 43.1981ZM139.319 47.6992L139.869 47.3257C140.831 48.6254 141.6 50.0298 142.436 51.5983L141.836 51.8936C141.011 50.3493 140.254 48.9659 139.319 47.6992ZM143.014 54.0681L143.609 53.7599L143.679 53.8806C143.851 54.221 144.013 54.5502 144.172 54.8793L143.559 55.1513C143.402 54.8246 143.241 54.5019 143.076 54.1776L143.014 54.0681ZM144.57 57.3806L145.195 57.1335C145.675 58.2618 146.125 59.4247 146.534 60.5908L145.894 60.796C145.491 59.6436 145.044 58.4935 144.57 57.3806ZM146.474 62.5359L147.121 62.346C147.609 63.8887 148.047 65.4862 148.422 67.099L147.763 67.2398C147.393 65.6431 146.959 64.0602 146.474 62.5359ZM148.269 69.6211L148.932 69.5068C149.01 69.9108 149.084 70.314 149.153 70.7156L148.485 70.8202C148.418 70.4235 148.346 70.0251 148.269 69.6211ZM148.852 73.2289L149.522 73.1468C149.683 74.3765 149.809 75.611 149.895 76.8174L149.222 76.8592C149.137 75.6666 149.012 74.4449 148.852 73.2289ZM149.32 78.682L149.995 78.6571C150.024 79.445 150.036 80.2111 150.03 80.9523C150.061 81.7981 150.057 82.66 150.017 83.5718L149.343 83.5453C149.382 82.6488 149.387 81.8037 149.357 80.9595C149.361 80.2159 149.35 79.4586 149.32 78.682ZM149.163 85.9652L149.835 86.0288C149.792 86.4497 149.746 86.8569 149.702 87.248L149.031 87.1764C149.076 86.7901 149.12 86.3869 149.163 85.9652ZM148.749 89.6116L149.42 89.6728C149.405 89.8225 149.393 89.969 149.382 90.1114C149.296 90.8687 149.148 91.4964 149.029 92.0026C148.972 92.2505 148.919 92.4726 148.885 92.6674L148.744 93.3152L148.084 93.1848L148.223 92.5466C148.255 92.3559 148.311 92.1225 148.372 91.8577C148.487 91.3725 148.629 90.7657 148.709 90.0551C148.719 89.9183 148.734 89.767 148.749 89.6116Z" fill="url(#paint18_linear_57_306)"/>
<path d="M147.834 94.3275L148.495 94.4587L147.948 96.9727L147.287 96.8423L147.834 94.3275Z" fill="url(#paint19_linear_57_306)"/>
<path d="M146.486 99.2599L147.296 96.8093L147.939 97.0065L147.129 99.4579L146.486 99.2599Z" fill="url(#paint20_linear_57_306)"/>
<path d="M142.847 108.326C142.901 108.21 142.958 108.081 143.015 107.944L144.359 104.96L144.977 105.219L143.64 108.19C143.582 108.331 143.521 108.467 143.464 108.59L142.847 108.326ZM145.338 102.739L145.722 101.575L146.366 101.769L145.981 102.934L145.338 102.739Z" fill="url(#paint21_linear_57_306)"/>
<path d="M71.6757 142.134L72.3373 142.264C72.536 142.297 72.7801 142.348 73.0551 142.409C73.5633 142.517 74.1973 142.656 74.9335 142.733C75.0761 142.742 75.2321 142.756 75.3948 142.769L75.3327 143.414C75.1751 143.401 75.0233 143.386 74.8732 143.377C74.0849 143.296 73.4308 143.153 72.905 143.041C72.6442 142.983 72.4128 142.933 72.2115 142.9L71.5339 142.766L71.6757 142.134ZM77.9323 143.042C78.3382 143.084 78.7591 143.129 79.1952 143.168L79.1298 143.813C78.6904 143.772 78.2669 143.729 77.8585 143.684L77.9323 143.042ZM81.7177 143.339C82.651 143.377 83.5315 143.381 84.4103 143.352C85.1877 143.356 85.9751 143.345 86.7852 143.318L86.8087 143.965C85.9885 143.994 85.1911 144.003 84.4196 143.999C83.5382 144.028 82.6401 144.024 81.6891 143.987L81.7177 143.339ZM88.6837 143.222C89.9265 143.142 91.1995 143.022 92.4666 142.87L92.5521 143.513C91.2724 143.666 89.9861 143.789 88.7282 143.868L88.6837 143.222ZM94.9756 142.518C95.3899 142.453 95.8058 142.383 96.2234 142.31L96.3459 142.944C95.9232 143.021 95.5031 143.091 95.083 143.158L94.9756 142.518ZM98.7073 141.823C100.369 141.469 102.02 141.052 103.61 140.588L103.806 141.207C102.198 141.677 100.533 142.098 98.8532 142.458L98.7073 141.823ZM105.419 140.032C106.621 139.643 107.818 139.216 108.981 138.76L109.236 139.36C108.061 139.821 106.848 140.255 105.635 140.644L105.419 140.032ZM111.304 137.791C111.643 137.639 111.983 137.483 112.321 137.326L112.433 137.266L112.754 137.837L112.628 137.903C112.273 138.07 111.932 138.223 111.588 138.377L111.304 137.791ZM114.699 136.136C116.307 135.346 117.746 134.619 119.068 133.719L119.457 134.249C118.1 135.172 116.639 135.912 115.007 136.713L114.699 136.136ZM120.677 132.712L122.377 131.649L123.758 130.597L124.177 131.105L122.425 132.391L121.046 133.253L120.677 132.712ZM125.766 129.089C126.1 128.841 126.424 128.586 126.742 128.327L127.18 128.82C126.854 129.086 126.522 129.348 126.178 129.601L125.766 129.089ZM128.609 126.692C128.927 126.398 129.241 126.105 129.553 125.812C129.892 125.494 130.23 125.18 130.566 124.87L131.77 123.755C131.911 123.607 132.059 123.444 132.206 123.277L132.719 123.698C132.568 123.868 132.412 124.039 132.251 124.207L131.033 125.338C130.697 125.647 130.361 125.96 130.023 126.275C129.711 126.569 129.395 126.864 129.076 127.158L128.609 126.692ZM133.442 121.88L134.807 120.344C135.175 119.963 135.529 119.556 135.894 119.094L136.432 119.485C136.051 119.967 135.685 120.388 135.31 120.775L133.957 122.301L133.442 121.88ZM137.349 117.106C137.571 116.798 137.789 116.496 138.006 116.21L138.085 116.103L138.635 116.478L138.556 116.585C138.337 116.872 138.124 117.168 137.907 117.473L137.349 117.106ZM139.514 114.097C139.817 113.645 140.051 113.256 140.231 112.907L142.002 109.855L142.591 110.171L140.828 113.208C140.644 113.564 140.398 113.974 140.082 114.447L139.514 114.097Z" fill="url(#paint22_linear_57_306)"/>
<path d="M67.8612 141.373L67.7231 142.006L70.344 142.532L70.482 141.899L67.8612 141.373Z" fill="url(#paint23_linear_57_306)"/>
<path d="M7.45263 63.6311L8.17801 63.776L7.57087 66.5605L6.84634 66.4156L7.45263 63.6311ZM6.2434 69.2058L6.97045 69.345L6.93104 69.522L6.64592 72.1408L5.90964 72.0675L6.2434 69.2058ZM5.59769 74.8987L6.3348 74.9744L6.19812 76.2129C6.13942 76.662 6.11174 77.1408 6.10419 77.7782L5.36457 77.7693C5.37044 77.1054 5.40062 76.6016 5.46268 76.1308L5.59769 74.8987ZM5.35702 80.6174L6.09832 80.6206L6.08994 83.4687L5.34863 83.4631L5.35702 80.6174ZM5.52641 86.3377L6.26353 86.2725L6.54026 89.086L5.80314 89.1592L5.52641 86.3377ZM6.11258 92.0274L6.84299 91.9108C6.90839 92.2818 6.98638 92.656 7.06605 93.0286C7.12559 93.3207 7.18848 93.6112 7.24299 93.9058L7.40567 94.6977L6.67695 94.8329L6.5151 94.037C6.45975 93.744 6.40021 93.4543 6.33984 93.1702C6.25849 92.7872 6.17883 92.4065 6.11258 92.0274ZM7.24467 97.6254L7.97255 97.4902L8.26438 98.9259C8.38094 99.3452 8.50757 99.7879 8.63755 100.233L7.92392 100.426C7.79226 99.9786 7.6648 99.5319 7.53985 99.0845L7.24467 97.6254ZM8.78011 103.164L9.48703 102.949C9.78389 103.844 10.0967 104.74 10.4262 105.637L9.72938 105.874C9.39563 104.97 9.07864 104.065 8.78011 103.164ZM10.7684 108.555L11.4594 108.293C11.8158 109.171 12.1898 110.045 12.5806 110.915L11.8988 111.197C11.5055 110.318 11.129 109.437 10.7684 108.555ZM13.124 113.802L13.7948 113.501C14.2133 114.353 14.6477 115.202 15.098 116.043L14.4389 116.369C13.9843 115.519 13.5458 114.663 13.124 113.802ZM15.8527 118.902L16.4925 118.539L16.729 118.941C17.15 119.613 17.5861 120.285 18.0305 120.95L17.4083 121.336C16.9571 120.664 16.5177 119.986 16.0875 119.3L15.8527 118.902ZM19.062 123.713L19.6724 123.305C20.2351 124.081 20.8112 124.85 21.3957 125.607L20.8029 126.033C20.2117 125.271 19.6305 124.497 19.062 123.713ZM22.6226 128.295L23.202 127.85C23.8176 128.592 24.4473 129.319 25.083 130.036L24.5194 130.498C23.8771 129.776 23.2448 129.041 22.6226 128.295ZM26.4893 132.642L27.0377 132.161C27.7052 132.865 28.382 133.55 29.0637 134.222L28.5329 134.719C27.8453 134.043 27.1635 133.348 26.4893 132.642ZM30.6855 136.721L31.1669 136.181L33.4227 138.027L32.9438 138.568L30.6855 136.721ZM35.1988 140.414L35.6835 139.875C36.0416 140.17 36.3996 140.462 36.7711 140.731L38.0198 141.563L37.5963 142.147L36.3359 141.308C35.9409 141.021 35.5686 140.72 35.1988 140.414ZM40.0307 143.773L40.4542 143.189L42.8634 144.785L42.507 145.408L42.0911 145.146L40.0307 143.773ZM45.0932 146.795L45.4555 146.173L46.7184 146.852C47.1679 147.079 47.6115 147.323 48.0475 147.562L47.6794 148.18C47.25 147.945 46.8148 147.704 46.3645 147.477L45.0932 146.795ZM50.3587 149.485L50.653 148.834L53.375 149.963L53.0815 150.616L50.3587 149.485ZM55.8036 151.743L56.0962 151.092L56.8216 151.392L58.8627 152.013L58.6363 152.691L56.5625 152.055L55.8036 151.743ZM61.4648 153.555L61.6887 152.876L64.5164 153.737L64.2934 154.414L61.4648 153.555Z" fill="url(#paint24_linear_57_306)"/>
<path d="M7.87109 61.719L8.76754 59.0053L9.47363 59.221L8.57802 61.9347L7.87109 61.719ZM9.66398 56.2916L10.3265 54.2998L10.6527 53.5715L11.3319 53.8539L11.0191 54.5501L10.3709 56.5057L9.66398 56.2916ZM11.8284 50.96L13.0041 48.3461L13.685 48.6293L12.5085 51.2408L11.8284 50.96ZM14.3659 45.7732C14.6108 45.3628 14.8607 44.9459 15.098 44.5137L15.8091 43.2929L16.4565 43.6406L15.7504 44.8526C15.5148 45.2847 15.259 45.7088 15.0091 46.1281L14.3659 45.7732ZM17.2548 40.8102L17.5299 40.4118L18.9588 38.4377L19.5693 38.8425L17.9073 41.1522L17.2548 40.8102ZM20.6519 36.099L21.5266 34.8911C21.8243 34.5104 22.1396 34.1531 22.4582 33.799L23.0201 34.2633C22.7115 34.6078 22.4079 34.9498 22.1287 35.3071L21.2616 36.5046L20.6519 36.099ZM24.3828 31.6333L26.3057 29.4685L26.8692 29.9288L24.9455 32.0953L24.3828 31.6333ZM28.3929 27.401C29.0981 26.7419 29.8202 26.0877 30.5581 25.4406L31.0579 25.9645C30.3258 26.6067 29.6097 27.257 28.9095 27.9097L28.3929 27.401ZM32.7921 23.5494C33.5435 22.9338 34.3091 22.3261 35.0873 21.729L35.5502 22.2851C34.7787 22.8758 34.019 23.4794 33.2735 24.0878L32.7921 23.5494ZM37.4454 19.9851C38.2387 19.4137 39.0446 18.8584 39.863 18.3136L40.2848 18.8994C39.4748 19.4386 38.6764 19.9899 37.889 20.5548L37.4454 19.9851ZM42.3402 16.7257C43.0379 16.2936 43.7448 15.8703 44.4593 15.459L44.8752 15.2329L45.2526 15.8453L44.8333 16.0723C44.1331 16.4755 43.4329 16.8963 42.7419 17.3221L42.3402 16.7257ZM47.5134 13.8752C48.399 13.439 49.2912 13.0157 50.1877 12.6125L50.5021 13.2572C49.6132 13.6587 48.7294 14.0756 47.8531 14.5086L47.5134 13.8752ZM52.903 11.4384C53.8171 11.0593 54.737 10.6988 55.6577 10.3511L55.9278 11.0143C55.0137 11.3579 54.1039 11.716 53.1957 12.0927L52.903 11.4384ZM58.4502 9.35321C59.3911 9.03452 60.3345 8.73031 61.2729 8.44462L61.4976 9.12465C60.5651 9.40793 59.631 9.70811 58.6968 10.0252L58.4502 9.35321ZM64.1274 7.62295C64.5937 7.4974 65.0583 7.37347 65.5245 7.25758L67.044 6.97269L67.1849 7.66721L65.6897 7.94808C65.252 8.06074 64.7908 8.18146 64.3262 8.30781L64.1274 7.62295ZM69.9564 6.42625L70.7841 6.27173C71.091 6.21781 71.3904 6.15907 71.6881 6.10273C72.0847 6.02547 72.4822 5.94821 72.8772 5.88383L72.9988 6.58801C72.6122 6.64837 72.224 6.72321 71.8349 6.80127C71.5313 6.85761 71.2285 6.91716 70.9225 6.96947L70.0965 7.1256L69.9564 6.42625ZM75.8651 5.58848L75.8877 5.945L75.8668 5.58687L78.806 5.3213L78.8764 6.0303L75.9439 6.29588L75.8651 5.58848ZM81.8014 5.15149L84.7675 5.16115L84.765 5.87176L81.7972 5.86613L81.8014 5.15149ZM87.7352 5.16678C88.4279 5.17161 88.9537 5.20058 89.4434 5.26255L90.7264 5.39051L90.6493 6.0979L89.357 5.96833C88.8899 5.9128 88.3902 5.88464 87.7277 5.879L87.7352 5.16678ZM93.6766 5.68827L96.6569 6.01018L96.511 6.70873L96.3273 6.6701L93.5969 6.39728L93.6766 5.68827ZM99.5659 6.5872L102.468 7.17066L102.317 7.86518L99.4133 7.28414L99.5659 6.5872Z" fill="url(#paint25_linear_57_306)"/>
<path d="M104.235 8.24993L104.458 7.57312L107.287 8.43262L107.063 9.11104L104.235 8.24993ZM109.892 9.97053L110.115 9.29372L112.191 9.92788L112.948 10.2401L112.656 10.8952L111.931 10.595L109.892 9.97053ZM115.378 12.0219L115.671 11.3708L118.394 12.4999L118.099 13.1526L115.378 12.0219ZM120.706 14.4225L121.074 13.8061C121.503 14.0419 121.939 14.2809 122.388 14.5094L123.66 15.1879L123.299 15.8116L122.034 15.1347C121.586 14.907 121.141 14.664 120.706 14.4225ZM125.889 17.203L126.245 16.5777L126.661 16.8417L128.72 18.2122L128.297 18.7989L125.889 17.203ZM130.732 20.4229L131.156 19.8362L132.417 20.6772C132.812 20.9621 133.183 21.2647 133.553 21.5705L133.069 22.1097C132.711 21.8143 132.354 21.5214 131.981 21.2542L130.732 20.4229ZM135.329 23.9599L135.81 23.4175L138.067 25.2644L137.586 25.8044L135.329 23.9599ZM139.688 27.7632L140.219 27.2675C140.907 27.9443 141.589 28.6356 142.262 29.3446L141.716 29.8242C141.046 29.1225 140.371 28.4352 139.688 27.7632ZM143.67 31.9496L144.232 31.4901C144.875 32.2096 145.507 32.9459 146.13 33.6904L145.55 34.1354C144.934 33.395 144.305 32.6659 143.67 31.9496ZM147.355 36.3807L147.949 35.955C148.543 36.7155 149.121 37.4905 149.689 38.2751L149.08 38.6815C148.517 37.9017 147.942 37.134 147.355 36.3807ZM150.721 41.0355L151.344 40.6508C151.795 41.322 152.234 41.9996 152.663 42.6853L152.899 43.0853L152.26 43.4482L152.023 43.0442C151.602 42.3722 151.166 41.701 150.721 41.0355ZM153.654 45.943L154.314 45.6171C154.768 46.4661 155.207 47.3216 155.629 48.1827L154.957 48.4853C154.538 47.6322 154.105 46.7824 153.654 45.943ZM156.172 51.0678L156.853 50.7893C157.247 51.6649 157.623 52.5486 157.985 53.4322L157.294 53.6921C156.937 52.8157 156.562 51.941 156.172 51.0678ZM158.326 56.3503L159.025 56.1121C159.359 57.0166 159.676 57.9188 159.973 58.8226L159.265 59.039C158.97 58.1409 158.657 57.2436 158.326 56.3503ZM160.114 61.7527L160.827 61.562C160.96 62.0078 161.087 62.4561 161.211 62.9011L161.508 64.3602L160.781 64.4962L160.488 63.0621C160.372 62.6396 160.244 62.1953 160.114 61.7527ZM161.347 67.2887L162.076 67.1535L162.237 67.9487C162.292 68.2432 162.353 68.5297 162.413 68.8178C162.494 69.2001 162.574 69.5791 162.639 69.9582L161.909 70.0749C161.843 69.7039 161.765 69.3321 161.686 68.957C161.625 68.6665 161.563 68.3744 161.509 68.0798L161.347 67.2887ZM162.211 72.9012L162.948 72.828L163.228 75.6487L162.49 75.7155L162.211 72.9012ZM162.662 78.5193L163.404 78.5209L163.393 81.3698L162.652 81.3666L162.662 78.5193ZM162.648 84.2091L163.389 84.2163C163.382 84.8802 163.353 85.384 163.29 85.8564L163.155 87.0869L162.417 87.0129L162.553 85.7727C162.612 85.3253 162.642 84.8432 162.648 84.2091ZM162.106 89.8425L162.843 89.9181L162.508 92.7791L161.783 92.6382L161.821 92.4644L162.106 89.8425ZM161.182 95.4227L161.907 95.5692L161.3 98.3561L160.575 98.2096L161.182 95.4227Z" fill="url(#paint26_linear_57_306)"/>
<path d="M66.436 154.119L69.3391 154.702L69.1882 155.397L66.2842 154.816L66.436 154.119ZM72.2406 155.279L72.4234 155.315L75.1539 155.588L75.0759 156.295L72.093 155.976L72.2406 155.279ZM78.1032 155.886L79.3946 156.018C79.8625 156.074 80.3623 156.103 81.0248 156.11L81.0189 156.82C80.3254 156.815 79.7996 156.783 79.309 156.725L78.0269 156.596L78.1032 155.886ZM83.9875 156.112L86.9553 156.12L86.9511 156.834L83.9842 156.824L83.9875 156.112ZM89.876 155.955L92.8086 155.69L92.8882 156.397L92.8639 156.043L92.8857 156.397L89.9448 156.665L89.876 155.955ZM95.752 155.399C96.1394 155.336 96.5285 155.26 96.9168 155.187C97.2203 155.13 97.5239 155.068 97.8308 155.016L98.6552 154.861L98.7969 155.559L97.9692 155.713C97.6623 155.765 97.3629 155.825 97.0644 155.884C96.6677 155.959 96.2711 156.037 95.8753 156.1L95.752 155.399ZM101.567 154.315L103.062 154.034C103.499 153.923 103.96 153.803 104.424 153.678L104.624 154.362C104.158 154.49 103.693 154.61 103.227 154.729L101.708 155.014L101.567 154.315ZM107.255 152.863C108.187 152.58 109.122 152.278 110.055 151.961L110.303 152.631C109.36 152.953 108.419 153.254 107.48 153.541L107.255 152.863ZM112.825 150.969C113.737 150.627 114.648 150.269 115.557 149.894L115.85 150.547C114.936 150.925 114.015 151.288 113.096 151.633L112.825 150.969ZM118.25 148.728C119.138 148.328 120.022 147.911 120.899 147.479L121.239 148.11C120.354 148.548 119.462 148.967 118.567 149.371L118.25 148.728ZM123.501 146.14L123.92 145.913C124.619 145.508 125.318 145.09 126.011 144.664L126.412 145.262C125.714 145.694 125.008 146.114 124.293 146.527L123.877 146.755L123.501 146.14ZM128.468 143.089C129.279 142.548 130.077 141.996 130.863 141.433L131.306 142.003C130.514 142.57 129.707 143.128 128.889 143.675L128.468 143.089ZM133.201 139.7C133.973 139.109 134.734 138.506 135.479 137.897L135.96 138.436C135.208 139.052 134.443 139.66 133.666 140.257L133.201 139.7ZM137.694 136.02C138.427 135.377 139.142 134.729 139.842 134.076L140.36 134.585C139.653 135.245 138.931 135.9 138.194 136.544L137.694 136.02ZM141.882 132.058L143.806 129.892L144.371 130.353L142.447 132.52L141.882 132.058ZM145.732 127.722C146.039 127.379 146.344 127.035 146.624 126.679L147.49 125.482L148.1 125.887L147.224 127.094C146.927 127.477 146.612 127.832 146.293 128.188L145.732 127.722ZM149.184 123.144L150.847 120.832L151.497 121.175L151.223 121.574L149.793 123.55L149.184 123.144ZM152.296 118.345L153.002 117.133C153.239 116.703 153.493 116.275 153.743 115.86L154.387 116.211C154.142 116.623 153.89 117.04 153.655 117.473L152.945 118.692L152.296 118.345ZM155.067 113.356L156.245 110.743L156.925 111.026L155.749 113.637L155.067 113.356ZM157.42 108.133L157.732 107.436L158.382 105.478L159.088 105.694L158.426 107.686L158.101 108.413L157.42 108.133ZM159.279 102.766L160.175 100.05L160.881 100.266L159.985 102.98L159.279 102.766Z" fill="url(#paint27_linear_57_306)"/>
<path d="M14.8715 126.639C14.9093 126.501 14.9864 126.387 15.0988 126.314C15.2262 126.242 15.3696 126.221 15.5181 126.24C15.6606 126.275 15.7931 126.357 15.8812 126.48L16.2065 126.975C16.2736 127.066 16.3273 127.15 16.3944 127.243C16.49 127.396 16.6141 127.56 16.7449 127.757C16.9135 127.977 16.8489 128.327 16.6023 128.5C16.3592 128.66 16.022 128.604 15.8418 128.368C15.6858 128.151 15.555 127.957 15.4451 127.796C15.3923 127.709 15.3352 127.637 15.2791 127.565L14.9436 127.053C14.8531 126.93 14.8338 126.775 14.8715 126.639ZM23.2439 136.457C23.2707 136.361 23.3101 136.267 23.3906 136.197C23.4921 136.107 23.6296 136.054 23.7848 136.045C23.9349 136.055 24.0758 136.106 24.1814 136.221C24.3877 136.42 24.3844 136.772 24.1621 136.967C23.95 137.178 23.6028 137.162 23.3814 136.961C23.3672 136.958 23.3714 136.943 23.3714 136.943C23.2389 136.809 23.1986 136.621 23.2439 136.457ZM33.8335 145.507C33.8486 145.451 33.8804 145.388 33.9106 145.335C34.0012 145.227 34.1329 145.141 34.2763 145.119C34.4205 145.096 34.5681 145.119 34.6855 145.192C34.8138 145.282 34.9471 145.36 35.1014 145.46L39.3966 148.32C40.0239 148.773 40.7065 149.135 41.4285 149.524L41.5115 149.559C42.2084 149.925 42.8868 150.303 43.5551 150.661L43.6918 150.725C44.2126 151.005 44.735 151.282 45.2424 151.56C46.1254 152.03 46.964 152.493 47.7799 152.873C48.7191 153.255 49.6273 153.633 50.4801 153.992L51.8856 154.569C53.0001 155.039 54.0349 155.46 54.9422 155.839C55.5577 156.051 56.154 156.231 56.6672 156.375C56.9649 156.463 57.2466 156.55 57.5167 156.632C58.9708 157.088 59.806 157.342 59.806 157.342C60.0894 157.427 60.2437 157.702 60.1691 157.977L60.1615 158.005C60.0693 158.291 59.7674 158.437 59.4706 158.345C59.4706 158.345 58.5926 158.08 57.1762 157.652C56.9221 157.572 56.6538 157.49 56.3703 157.405C55.8294 157.253 55.2055 157.066 54.5305 156.838L54.5078 156.816C53.8311 156.543 53.1158 156.245 52.3468 155.92L47.3179 153.844C46.4206 153.427 45.5543 152.945 44.6319 152.449C44.1505 152.195 43.6575 151.923 43.1459 151.663C42.7593 151.448 42.3702 151.244 41.9845 151.032L40.8876 150.445C40.1765 150.076 39.4394 149.684 38.7484 149.186C37.7228 148.501 36.6855 147.812 35.6616 147.128L34.4792 146.346C34.3501 146.254 34.2041 146.173 34.0616 146.08C33.8637 145.957 33.7739 145.727 33.8335 145.507Z" fill="url(#paint28_linear_57_306)"/>
<path d="M2.75059 60.4626C4.65836 53.4828 7.51541 46.7871 11.2588 40.5501C11.3217 40.4326 11.4375 40.3441 11.5851 40.3079C11.7335 40.2693 11.8844 40.2813 12.0169 40.357C12.2702 40.4962 12.3641 40.8286 12.2165 41.0845C8.54519 47.2241 5.70995 53.8393 3.83404 60.7056L3.80301 60.8167C3.35856 62.4415 2.96526 64.1066 2.62899 65.7886L2.61725 65.8892C2.58622 66.059 2.54094 66.2223 2.51075 66.3921C2.44199 66.698 2.16358 66.8782 1.8575 66.8171C1.71074 66.7937 1.59334 66.7205 1.50529 66.5933C1.42563 66.4855 1.39208 66.3318 1.41556 66.1885C1.44994 66.0083 1.50361 65.8143 1.54051 65.6188L1.54806 65.5906C1.87343 63.8941 2.2835 62.1711 2.75059 60.4626ZM0.982854 68.6125C1.05833 68.3365 1.33422 68.1691 1.61347 68.2117C1.90781 68.256 2.12417 68.5312 2.07385 68.8298L2.0705 68.8427C2.02773 69.1107 1.74093 69.3175 1.44743 69.2732C1.15225 69.229 0.950988 68.9569 0.9795 68.6857C0.971952 68.6535 0.9795 68.6262 0.982854 68.6125ZM0.0184838 79.7159C0.0822161 79.4809 0.311988 79.316 0.556854 79.32C0.711153 79.3152 0.847842 79.3795 0.957697 79.4785C1.0533 79.5783 1.10948 79.7103 1.11535 79.8568C1.11116 80.1521 0.845326 80.3944 0.540082 80.3911C0.234838 80.3855 -0.00331933 80.1344 3.49996e-05 79.8423L0.00422791 79.827C3.49997e-05 79.7827 0.00758224 79.757 0.0184838 79.7159ZM0.99711 93.3045C1.0533 93.0993 1.23191 92.9512 1.45498 92.9214C1.59921 92.8981 1.74261 92.9343 1.86085 93.0075C1.9749 93.0945 2.06295 93.2216 2.08727 93.3592C2.15352 93.7882 2.22396 94.2018 2.2944 94.6179C3.55646 102.511 6.23406 108.763 8.19047 113.33L8.55442 114.188L8.55106 114.201C9.28734 115.651 9.97414 116.9 10.5268 117.906C10.7347 118.268 10.9184 118.607 11.0802 118.914C11.0802 118.914 11.0802 118.914 11.0911 118.931C11.2102 119.168 11.102 119.507 10.8387 119.632C10.5704 119.771 10.2333 119.658 10.0882 119.399C9.92718 119.094 9.74101 118.768 9.5473 118.411C8.98293 117.386 8.28523 116.122 7.53051 114.621L7.51961 114.604C7.3913 114.291 7.25713 113.994 7.12799 113.681C5.16487 109.083 2.4705 102.783 1.20256 94.7981C1.12122 94.3652 1.05078 93.9491 0.984531 93.5226C0.97363 93.4486 0.977823 93.3753 0.99711 93.3045ZM19.2941 29.4902C19.3126 29.4209 19.3638 29.3461 19.4116 29.2849C19.5021 29.1763 19.6447 29.1063 19.7847 29.0982C19.939 29.0934 20.0824 29.1296 20.1965 29.2173C20.4212 29.4073 20.4497 29.7509 20.2669 29.9698C20.1763 30.0784 20.0346 30.146 19.8946 30.1565C19.7361 30.1742 19.5952 30.1251 19.482 30.0366C19.3185 29.9086 19.238 29.697 19.2941 29.4902ZM27.3236 21.4304C27.3538 21.3201 27.4074 21.2324 27.4888 21.1656C27.7102 20.97 28.059 20.9845 28.2754 21.2002C28.4632 21.4111 28.459 21.7619 28.2385 21.9559C28.0154 22.1506 27.6523 22.1329 27.4502 21.9213C27.3185 21.7853 27.2775 21.5978 27.3236 21.4304ZM29.2599 19.7846C29.2901 19.6744 29.3437 19.5866 29.4301 19.5029C32.8951 16.6388 36.6017 14.0707 40.4164 11.8383C44.6227 9.34994 49.1477 7.20683 53.8572 5.4629C53.9939 5.41139 54.1482 5.40495 54.2849 5.46853C54.4207 5.53291 54.5314 5.6319 54.5733 5.76227C54.684 6.02543 54.5339 6.35378 54.2597 6.46162C49.619 8.179 45.1619 10.2939 40.995 12.7485C37.2398 14.9359 33.5819 17.4886 30.1563 20.3206C30.0406 20.4067 29.9022 20.4614 29.7555 20.4405C29.6054 20.4324 29.4678 20.3681 29.3764 20.2554C29.2607 20.1234 29.2146 19.9504 29.2599 19.7846ZM11.2454 121.224C11.2832 121.084 11.3821 120.949 11.523 120.882C11.7913 120.742 12.1285 120.857 12.2719 121.114C12.406 121.353 12.2979 121.694 12.0295 121.834C11.7662 121.957 11.4408 121.861 11.2916 121.618C11.2916 121.618 11.2773 121.614 11.2807 121.601C11.2203 121.482 11.2119 121.347 11.2454 121.224ZM67.147 1.99674C67.199 1.80521 67.3634 1.65311 67.5722 1.6177C67.8783 1.56136 68.1642 1.7529 68.2255 2.03135C68.2867 2.31382 68.0854 2.60113 67.7936 2.65988C67.4867 2.71621 67.2015 2.52467 67.1395 2.24622C67.116 2.16575 67.1244 2.07883 67.147 1.99674ZM78.6549 0.507918C78.7153 0.286605 78.9115 0.13048 79.1455 0.117603C79.3031 0.0974841 79.4432 0.146575 79.5581 0.2351C79.6721 0.321211 79.7417 0.458826 79.7518 0.592419C79.7803 0.878112 79.5405 1.14449 79.2411 1.17105C79.2411 1.17105 79.2268 1.16783 79.2235 1.18071C79.0868 1.17588 78.9425 1.13966 78.8436 1.05516C78.7329 0.953761 78.6591 0.83385 78.6398 0.680943C78.639 0.623 78.6398 0.561837 78.6549 0.507918ZM81.231 0.392835C81.2964 0.154623 81.5237 -0.00472184 81.782 0.000106787C82.6566 0.000911558 83.4986 0.00574019 84.312 0.00332587L86.0747 0.00654496C86.3053 0.00493542 86.5309 0.0178118 86.7615 0.0162022C88.0646 0.0194213 89.2906 0.0210308 90.4294 0.174742L96.4111 0.782345C97.2044 0.85075 97.7469 0.943299 98.0488 1.01895L98.2828 1.06401C98.4555 1.10747 98.5453 1.1123 98.588 1.12276C98.7323 1.15898 98.8488 1.23624 98.9377 1.36017C99.0149 1.46721 99.0492 1.62333 99.0115 1.76095C98.9469 2.05308 98.6526 2.23013 98.3633 2.17138C98.3633 2.17138 98.1746 2.13758 97.8107 2.06435C97.5079 1.98789 97.014 1.88971 96.3188 1.85028C95.1842 1.74002 93.6177 1.58068 91.6496 1.37788L90.2911 1.24267C89.2319 1.08011 87.9917 1.07609 86.6701 1.08172L85.185 1.07448C84.1132 1.06965 82.9803 1.06562 81.7853 1.05758C81.7853 1.05758 81.7853 1.05758 81.7719 1.05436C81.4658 1.05275 81.2243 0.814535 81.2268 0.523208C81.2235 0.478946 81.2201 0.433879 81.231 0.392835Z" fill="url(#paint29_linear_57_306)"/>
<path d="M108.577 4.00563C108.581 3.99275 108.581 3.99275 108.584 3.97988C108.677 3.69499 108.995 3.53967 109.276 3.63865C109.276 3.63865 109.347 3.65636 109.49 3.69257L111.569 4.33559C111.824 4.41204 112.094 4.49573 112.376 4.58024C112.933 4.73395 113.542 4.91904 114.214 5.1484L114.24 5.16852C115.217 5.57574 116.321 6.02882 117.533 6.52697C118.182 6.79174 118.854 7.08066 119.556 7.3744L121.431 8.14054C122.329 8.5558 123.208 9.04349 124.131 9.53923C124.613 9.79354 125.107 10.0655 125.603 10.3223C126.325 10.711 127.047 11.0981 127.783 11.49L127.876 11.5415C128.588 11.9117 129.324 12.3036 130.016 12.8026L134.27 15.6378C134.417 15.7191 134.546 15.8084 134.688 15.9066C134.938 16.0555 134.995 16.4079 134.838 16.6494C134.666 16.8844 134.328 16.9471 134.063 16.7926C133.934 16.7009 133.815 16.6268 133.674 16.5311L133.439 16.3846C132.075 15.4817 130.716 14.5658 129.351 13.6637C128.728 13.1977 128.016 12.8275 127.28 12.4356L127.237 12.4251C126.85 12.2119 126.46 12.0107 126.075 11.7958L125.07 11.2647C124.535 10.9806 124.026 10.707 123.518 10.4317C122.622 9.9553 121.797 9.49899 120.966 9.1127L116.875 7.42188C115.758 6.96316 114.727 6.52858 113.803 6.14712C113.187 5.93627 112.592 5.7544 112.066 5.60793C111.769 5.51699 111.501 5.43571 111.231 5.35362C109.79 4.90134 108.965 4.66635 108.951 4.66232C108.672 4.56092 108.502 4.28167 108.577 4.00563ZM144.443 25.2604C144.469 25.1654 144.521 25.0906 144.586 25.0174C144.693 24.9111 144.844 24.8612 144.981 24.8661C145.136 24.8612 145.271 24.9248 145.382 25.0262C145.585 25.2403 145.58 25.5904 145.358 25.7851C145.258 25.8769 145.118 25.9316 144.965 25.9372C144.813 25.9292 144.673 25.8801 144.582 25.7666C144.436 25.6266 144.394 25.4407 144.443 25.2604ZM151.923 33.7942C151.957 33.6695 152.035 33.5576 152.148 33.4844C152.391 33.3226 152.741 33.383 152.922 33.6196C153.067 33.8175 153.187 33.997 153.296 34.1563C153.359 34.2602 153.413 34.3471 153.469 34.4187L153.805 34.9297C153.971 35.1647 153.892 35.5132 153.648 35.6709C153.392 35.8279 153.043 35.7554 152.88 35.5075L152.541 35.0102C152.489 34.9233 152.421 34.8323 152.355 34.7422C152.258 34.5845 152.138 34.409 152.003 34.228C151.917 34.1032 151.882 33.9447 151.923 33.7942Z" fill="url(#paint30_linear_57_306)"/>
<path d="M69.7417 160.21C69.8205 159.921 70.0964 159.754 70.3866 159.813C70.4017 159.817 70.5912 159.848 70.9535 159.925C71.226 159.994 71.7073 160.086 72.4445 160.139C73.8315 160.281 75.8617 160.484 78.4596 160.739C79.5036 160.9 80.7171 160.895 82.0009 160.911C82.2164 160.906 82.4471 160.904 82.6777 160.904C84.0253 160.905 85.4643 160.914 86.9796 160.927C87.1339 160.92 87.2697 160.986 87.3645 161.084C87.4752 161.186 87.5314 161.315 87.5372 161.464C87.5372 161.745 87.2714 161.986 86.9771 162L86.6567 161.994C85.2487 161.978 83.9162 161.981 82.6751 161.979C82.4303 161.975 82.1846 161.971 81.9405 161.969C80.6525 161.968 79.4407 161.974 78.3204 161.809L72.3388 161.2C71.5723 161.141 71.0306 161.048 70.7011 160.965L70.452 160.918C70.2943 160.879 70.2046 160.87 70.1761 160.863C70.1761 160.863 70.1761 160.863 70.1618 160.86C69.8709 160.803 69.673 160.518 69.7384 160.222L69.7417 160.21ZM89.0182 161.206C89.0785 160.986 89.2748 160.828 89.5079 160.813C89.6513 160.791 89.8073 160.842 89.9205 160.933C90.0312 161.034 90.105 161.155 90.11 161.303C90.1427 161.576 89.8978 161.853 89.6035 161.866C89.305 161.895 89.0266 161.677 88.998 161.389C88.998 161.335 89.0031 161.26 89.0182 161.206ZM100.529 159.702C100.581 159.513 100.746 159.36 100.954 159.325C101.103 159.289 101.26 159.328 101.378 159.402C101.511 159.48 101.585 159.602 101.608 159.739C101.684 160.023 101.468 160.307 101.176 160.365C101.027 160.403 100.884 160.367 100.752 160.29C100.633 160.217 100.546 160.091 100.523 159.951C100.513 159.875 100.507 159.786 100.529 159.702ZM114.158 155.895C114.203 155.729 114.33 155.6 114.501 155.537C119.144 153.808 123.601 151.693 127.752 149.237C131.506 147.061 135.148 144.505 138.593 141.663C138.829 141.474 139.173 141.503 139.377 141.713C139.575 141.942 139.557 142.288 139.321 142.48C135.837 145.354 132.143 147.928 128.333 150.147C124.127 152.634 119.602 154.775 114.893 156.521C114.619 156.627 114.285 156.499 114.177 156.222C114.13 156.107 114.128 156.005 114.158 155.895ZM156.441 40.4932C156.482 40.3419 156.578 40.2187 156.718 40.1511C156.841 40.094 157 40.0747 157.144 40.1109C157.282 40.1616 157.397 40.2485 157.466 40.3853C157.466 40.3853 157.466 40.3853 157.478 40.4006C157.597 40.638 157.488 40.9785 157.225 41.1016C156.957 41.2408 156.62 41.1281 156.475 40.8706C156.416 40.7515 156.407 40.6179 156.441 40.4932ZM157.634 42.6918C157.671 42.5558 157.77 42.4198 157.913 42.3498C158.194 42.2154 158.521 42.312 158.661 42.5816C158.833 42.9059 159.03 43.2503 159.246 43.6431C159.799 44.6482 160.485 45.8964 161.219 47.3603L161.228 47.3804C161.362 47.6766 161.482 47.9703 161.61 48.285C163.588 52.8851 166.281 59.1872 167.56 67.1883C167.632 67.6027 167.698 68.0317 167.766 68.4606C167.812 68.7375 167.596 69.0231 167.308 69.0666C167.005 69.1076 166.72 68.9185 166.677 68.6288C166.61 68.1999 166.54 67.7838 166.454 67.3661C165.193 59.4713 162.53 53.2247 160.569 48.6689L160.205 47.8126C159.472 46.3495 158.775 45.0828 158.222 44.0768C158.028 43.7195 157.846 43.3791 157.683 43.0725C157.669 43.0693 157.669 43.0693 157.669 43.0693C157.61 42.9501 157.601 42.8149 157.634 42.6918ZM140.364 140.286C140.39 140.191 140.446 140.099 140.525 140.031C140.747 139.837 141.096 139.852 141.299 140.063C141.502 140.277 141.481 140.626 141.275 140.823C141.053 141.018 140.692 140.999 140.488 140.789C140.356 140.652 140.315 140.464 140.364 140.286ZM148.378 132.223C148.401 132.141 148.434 132.076 148.481 132.013C148.586 131.908 148.713 131.838 148.871 131.818C149.013 131.81 149.155 131.845 149.266 131.947C149.494 132.122 149.537 132.471 149.336 132.702C149.336 132.702 149.336 132.702 149.332 132.714C149.244 132.81 149.104 132.876 148.963 132.885C148.823 132.895 148.679 132.859 148.565 132.771C148.387 132.638 148.326 132.415 148.378 132.223ZM156.48 121.033C156.491 120.992 156.521 120.941 156.531 120.9C161.102 113.266 164.371 104.95 166.119 96.1931C166.158 95.9975 166.199 95.7891 166.237 95.5919C166.288 95.2957 166.586 95.1042 166.89 95.167C167.183 95.2128 167.397 95.5018 167.335 95.781C167.305 95.8913 167.294 95.9903 167.267 96.0884C167.251 96.2019 167.225 96.2969 167.213 96.3959C165.453 105.195 162.132 113.702 157.503 121.44C157.342 121.692 157.009 121.786 156.744 121.632C156.516 121.514 156.417 121.268 156.48 121.033ZM167.667 82.0033C167.735 81.7554 167.949 81.5881 168.209 81.5937C168.513 81.5969 168.766 81.852 168.75 82.1417C168.759 82.4387 168.497 82.6681 168.192 82.6648C167.886 82.6592 167.644 82.4234 167.648 82.1297C167.644 82.0854 167.656 82.0428 167.667 82.0033ZM166.686 93.1156C166.761 92.8396 167.036 92.6722 167.316 92.714C167.612 92.7583 167.827 93.0343 167.777 93.3297C167.744 93.6162 167.444 93.8198 167.134 93.7715C166.839 93.7272 166.624 93.4496 166.675 93.1558C166.678 93.1422 166.682 93.1269 166.686 93.1156Z" fill="url(#paint31_linear_57_306)"/>
<defs>
<linearGradient id="paint0_linear_57_306" x1="42.8904" y1="39.1276" x2="42.8904" y2="138.614" gradientUnits="userSpaceOnUse">
<stop stop-color="#5F3791"/>
<stop offset="1" stop-color="#63AF8F"/>
</linearGradient>
<linearGradient id="paint1_linear_57_306" x1="110.53" y1="65.1118" x2="110.53" y2="145.9" gradientUnits="userSpaceOnUse">
<stop stop-color="#5F3791"/>
<stop offset="1" stop-color="#63AF8F"/>
</linearGradient>
<linearGradient id="paint2_linear_57_306" x1="39.1136" y1="32.0929" x2="39.1136" y2="148.281" gradientUnits="userSpaceOnUse">
<stop stop-color="#5F3791"/>
<stop offset="1" stop-color="#63AF8F"/>
</linearGradient>
<linearGradient id="paint3_linear_57_306" x1="19.7562" y1="67.292" x2="19.7562" y2="129.209" gradientUnits="userSpaceOnUse">
<stop stop-color="#5F3791"/>
<stop offset="1" stop-color="#63AF8F"/>
</linearGradient>
<linearGradient id="paint4_linear_57_306" x1="93.5666" y1="11.4304" x2="93.5666" y2="62.9398" gradientUnits="userSpaceOnUse">
<stop stop-color="#5F3791"/>
<stop offset="1" stop-color="#63AF8F"/>
</linearGradient>
<linearGradient id="paint5_linear_57_306" x1="101.614" y1="8.34338" x2="101.614" y2="29.2833" gradientUnits="userSpaceOnUse">
<stop stop-color="#5F3791"/>
<stop offset="1" stop-color="#63AF8F"/>
</linearGradient>
<linearGradient id="paint6_linear_57_306" x1="111.411" y1="62.6356" x2="111.411" y2="150.508" gradientUnits="userSpaceOnUse">
<stop stop-color="#5F3791"/>
<stop offset="1" stop-color="#63AF8F"/>
</linearGradient>
<linearGradient id="paint7_linear_57_306" x1="131.282" y1="102.769" x2="131.282" y2="149.691" gradientUnits="userSpaceOnUse">
<stop stop-color="#5F3791"/>
<stop offset="1" stop-color="#63AF8F"/>
</linearGradient>
<linearGradient id="paint8_linear_57_306" x1="65.2396" y1="140.905" x2="67.7722" y2="141.744" gradientUnits="userSpaceOnUse">
<stop stop-color="#5F3791"/>
<stop offset="1" stop-color="#63AF8F"/>
</linearGradient>
<linearGradient id="paint9_linear_57_306" x1="59.2749" y1="137.107" x2="59.2749" y2="140.482" gradientUnits="userSpaceOnUse">
<stop stop-color="#5F3791"/>
<stop offset="1" stop-color="#63AF8F"/>
</linearGradient>
<linearGradient id="paint10_linear_57_306" x1="36.5029" y1="68.673" x2="36.5029" y2="136.861" gradientUnits="userSpaceOnUse">
<stop stop-color="#5F3791"/>
<stop offset="1" stop-color="#63AF8F"/>
</linearGradient>
<linearGradient id="paint11_linear_57_306" x1="20.8615" y1="65.0104" x2="20.8615" y2="67.6574" gradientUnits="userSpaceOnUse">
<stop stop-color="#5F3791"/>
<stop offset="1" stop-color="#63AF8F"/>
</linearGradient>
<linearGradient id="paint12_linear_57_306" x1="21.54" y1="62.5277" x2="21.54" y2="65.1747" gradientUnits="userSpaceOnUse">
<stop stop-color="#5F3791"/>
<stop offset="1" stop-color="#63AF8F"/>
</linearGradient>
<linearGradient id="paint13_linear_57_306" x1="24.1455" y1="53.3953" x2="24.1455" y2="60.412" gradientUnits="userSpaceOnUse">
<stop stop-color="#5F3791"/>
<stop offset="1" stop-color="#63AF8F"/>
</linearGradient>
<linearGradient id="paint14_linear_57_306" x1="61.6892" y1="17.9667" x2="61.6892" y2="52.1301" gradientUnits="userSpaceOnUse">
<stop stop-color="#5F3791"/>
<stop offset="1" stop-color="#63AF8F"/>
</linearGradient>
<linearGradient id="paint15_linear_57_306" x1="98.3422" y1="19.7723" x2="100.955" y2="20.3399" gradientUnits="userSpaceOnUse">
<stop stop-color="#5F3791"/>
<stop offset="1" stop-color="#63AF8F"/>
</linearGradient>
<linearGradient id="paint16_linear_57_306" x1="100.961" y1="20.2991" x2="103.494" y2="21.1362" gradientUnits="userSpaceOnUse">
<stop stop-color="#5F3791"/>
<stop offset="1" stop-color="#63AF8F"/>
</linearGradient>
<linearGradient id="paint17_linear_57_306" x1="109.477" y1="21.5038" x2="109.477" y2="24.8782" gradientUnits="userSpaceOnUse">
<stop stop-color="#5F3791"/>
<stop offset="1" stop-color="#63AF8F"/>
</linearGradient>
<linearGradient id="paint18_linear_57_306" x1="132.251" y1="25.1245" x2="132.251" y2="93.3152" gradientUnits="userSpaceOnUse">
<stop stop-color="#5F3791"/>
<stop offset="1" stop-color="#63AF8F"/>
</linearGradient>
<linearGradient id="paint19_linear_57_306" x1="147.891" y1="94.3275" x2="147.891" y2="96.9727" gradientUnits="userSpaceOnUse">
<stop stop-color="#5F3791"/>
<stop offset="1" stop-color="#63AF8F"/>
</linearGradient>
<linearGradient id="paint20_linear_57_306" x1="147.213" y1="96.8093" x2="147.213" y2="99.4579" gradientUnits="userSpaceOnUse">
<stop stop-color="#5F3791"/>
<stop offset="1" stop-color="#63AF8F"/>
</linearGradient>
<linearGradient id="paint21_linear_57_306" x1="144.606" y1="101.575" x2="144.606" y2="108.59" gradientUnits="userSpaceOnUse">
<stop stop-color="#5F3791"/>
<stop offset="1" stop-color="#63AF8F"/>
</linearGradient>
<linearGradient id="paint22_linear_57_306" x1="107.062" y1="109.855" x2="107.062" y2="144.018" gradientUnits="userSpaceOnUse">
<stop stop-color="#5F3791"/>
<stop offset="1" stop-color="#63AF8F"/>
</linearGradient>
<linearGradient id="paint23_linear_57_306" x1="67.7922" y1="141.689" x2="70.4036" y2="142.259" gradientUnits="userSpaceOnUse">
<stop stop-color="#5F3791"/>
<stop offset="1" stop-color="#63AF8F"/>
</linearGradient>
<linearGradient id="paint24_linear_57_306" x1="34.9325" y1="63.6311" x2="34.9325" y2="154.414" gradientUnits="userSpaceOnUse">
<stop stop-color="#5F3791"/>
<stop offset="1" stop-color="#63AF8F"/>
</linearGradient>
<linearGradient id="paint25_linear_57_306" x1="55.1697" y1="5.15149" x2="55.1697" y2="61.9347" gradientUnits="userSpaceOnUse">
<stop stop-color="#5F3791"/>
<stop offset="1" stop-color="#63AF8F"/>
</linearGradient>
<linearGradient id="paint26_linear_57_306" x1="133.82" y1="7.57312" x2="133.82" y2="98.3561" gradientUnits="userSpaceOnUse">
<stop stop-color="#5F3791"/>
<stop offset="1" stop-color="#63AF8F"/>
</linearGradient>
<linearGradient id="paint27_linear_57_306" x1="113.583" y1="100.05" x2="113.583" y2="156.834" gradientUnits="userSpaceOnUse">
<stop stop-color="#5F3791"/>
<stop offset="1" stop-color="#63AF8F"/>
</linearGradient>
<linearGradient id="paint28_linear_57_306" x1="37.5205" y1="126.233" x2="37.5205" y2="158.372" gradientUnits="userSpaceOnUse">
<stop stop-color="#5F3791"/>
<stop offset="1" stop-color="#63AF8F"/>
</linearGradient>
<linearGradient id="paint29_linear_57_306" x1="49.5134" y1="0" x2="49.5134" y2="121.887" gradientUnits="userSpaceOnUse">
<stop stop-color="#5F3791"/>
<stop offset="1" stop-color="#63AF8F"/>
</linearGradient>
<linearGradient id="paint30_linear_57_306" x1="131.226" y1="3.60876" x2="131.226" y2="35.7537" gradientUnits="userSpaceOnUse">
<stop stop-color="#5F3791"/>
<stop offset="1" stop-color="#63AF8F"/>
</linearGradient>
<linearGradient id="paint31_linear_57_306" x1="119.238" y1="40.0925" x2="119.238" y2="162" gradientUnits="userSpaceOnUse">
<stop stop-color="#5F3791"/>
<stop offset="1" stop-color="#63AF8F"/>
</linearGradient>
</defs>
</svg>
