<svg width="104" height="105" viewBox="0 0 104 105" fill="none" xmlns="http://www.w3.org/2000/svg">
<path d="M24.5 79.6931H9.5V94.6931" stroke="url(#paint0_linear_142_47)" stroke-width="4" stroke-linecap="round" stroke-linejoin="round"/>
<path d="M94.5 94.6931H79.5V79.6931" stroke="url(#paint1_linear_142_47)" stroke-width="4" stroke-linecap="round" stroke-linejoin="round"/>
<path d="M79.5 24.6931H94.5V9.69312" stroke="url(#paint2_linear_142_47)" stroke-width="4" stroke-linecap="round" stroke-linejoin="round"/>
<path d="M9.5 9.69312H24.5V24.6931" stroke="url(#paint3_linear_142_47)" stroke-width="4" stroke-linecap="round" stroke-linejoin="round"/>
<path d="M24.5 10.4282C10.9444 19.3718 2 34.7378 2 52.1931C2 54.7421 2.19075 57.2466 2.55875 59.6931" stroke="url(#paint4_linear_142_47)" stroke-width="4" stroke-linecap="round" stroke-linejoin="round"/>
<path d="M59.4997 101.634C57.0532 102.002 54.5487 102.193 51.9997 102.193C34.5445 102.193 19.1785 93.2486 10.2349 79.6931" stroke="url(#paint5_linear_142_47)" stroke-width="4" stroke-linecap="round" stroke-linejoin="round"/>
<path d="M101.441 44.6931C101.809 47.1396 102 49.6441 102 52.1931C102 69.6484 93.0555 85.0144 79.5 93.9581" stroke="url(#paint6_linear_142_47)" stroke-width="4" stroke-linecap="round" stroke-linejoin="round"/>
<path d="M44.5 2.75186C46.9465 2.38386 49.451 2.19312 52 2.19312C69.4553 2.19312 84.8213 11.1376 93.765 24.6931" stroke="url(#paint7_linear_142_47)" stroke-width="4" stroke-linecap="round" stroke-linejoin="round"/>
<defs>
<linearGradient id="paint0_linear_142_47" x1="17" y1="79.6931" x2="17" y2="94.6931" gradientUnits="userSpaceOnUse">
<stop stop-color="#5F3791"/>
<stop offset="1" stop-color="#63AF8F"/>
</linearGradient>
<linearGradient id="paint1_linear_142_47" x1="87" y1="79.6931" x2="87" y2="94.6931" gradientUnits="userSpaceOnUse">
<stop stop-color="#5F3791"/>
<stop offset="1" stop-color="#63AF8F"/>
</linearGradient>
<linearGradient id="paint2_linear_142_47" x1="87" y1="9.69312" x2="87" y2="24.6931" gradientUnits="userSpaceOnUse">
<stop stop-color="#5F3791"/>
<stop offset="1" stop-color="#63AF8F"/>
</linearGradient>
<linearGradient id="paint3_linear_142_47" x1="17" y1="9.69312" x2="17" y2="24.6931" gradientUnits="userSpaceOnUse">
<stop stop-color="#5F3791"/>
<stop offset="1" stop-color="#63AF8F"/>
</linearGradient>
<linearGradient id="paint4_linear_142_47" x1="13.25" y1="10.4282" x2="13.25" y2="59.6931" gradientUnits="userSpaceOnUse">
<stop stop-color="#5F3791"/>
<stop offset="1" stop-color="#63AF8F"/>
</linearGradient>
<linearGradient id="paint5_linear_142_47" x1="34.8673" y1="79.6931" x2="34.8673" y2="102.193" gradientUnits="userSpaceOnUse">
<stop stop-color="#5F3791"/>
<stop offset="1" stop-color="#63AF8F"/>
</linearGradient>
<linearGradient id="paint6_linear_142_47" x1="90.75" y1="44.6931" x2="90.75" y2="93.9581" gradientUnits="userSpaceOnUse">
<stop stop-color="#5F3791"/>
<stop offset="1" stop-color="#63AF8F"/>
</linearGradient>
<linearGradient id="paint7_linear_142_47" x1="69.1325" y1="2.19312" x2="69.1325" y2="24.6931" gradientUnits="userSpaceOnUse">
<stop stop-color="#5F3791"/>
<stop offset="1" stop-color="#63AF8F"/>
</linearGradient>
</defs>
</svg>
