<svg width="106" height="103" viewBox="0 0 106 103" fill="none" xmlns="http://www.w3.org/2000/svg">
<path d="M97.7975 47.915C97.9325 49.2125 98 50.57 98 52.0025C98 61.73 94.61 68.27 91.325 72.365C89.9987 74.0277 88.4807 75.5281 86.8025 76.835C86.2352 77.272 85.6443 77.6776 85.0325 78.0499L84.965 78.0875C84.3704 78.4093 83.8739 78.8859 83.528 79.4668C83.182 80.0477 82.9996 80.7113 83 81.3875V91.25C83 92.2445 82.6049 93.1983 81.9017 93.9016C81.1984 94.6049 80.2446 95 79.25 95H75.5C75.5 93.0108 74.7098 91.1032 73.3033 89.6967C71.8968 88.2901 69.9891 87.5 68 87.5H53C51.0109 87.5 49.1032 88.2901 47.6967 89.6967C46.2902 91.1032 45.5 93.0108 45.5 95H41.75C40.7554 95 39.8016 94.6049 39.0984 93.9016C38.3951 93.1983 38 92.2445 38 91.25V86.7275C38.0009 85.7972 37.6561 84.8997 37.0323 84.2095C36.4086 83.5192 35.5506 83.0855 34.625 82.9925C33.4367 82.7344 32.2724 82.3756 31.145 81.92C28.1544 80.7133 25.4416 78.909 23.1725 76.6175C19.85 73.2425 17.8175 68.8025 16.7225 65.72C15.65 62.6525 13.19 59.8775 9.6725 58.8875C9.19115 58.7505 8.76752 58.4605 8.46574 58.0613C8.16396 57.6621 8.00046 57.1754 8 56.675V50.72C7.99959 50.2474 8.15308 49.7876 8.43724 49.4101C8.72141 49.0325 9.1208 48.7578 9.575 48.6275C13.2125 47.585 15.6425 44.645 16.67 41.54C17.51 38.99 18.995 35.72 21.41 33.2675C24.1767 30.5054 27.3732 28.2105 30.875 26.4725C31.1675 26.3225 31.4 26.2175 31.55 26.15L31.7 26.075L31.73 26.0675C32.405 25.7781 32.9802 25.2969 33.3842 24.6836C33.7882 24.0703 34.0032 23.3519 34.0025 22.6175V10.0625C35.6706 11.4853 37.4239 12.8053 39.2525 14.015C41.63 15.575 44.405 17.0525 47.3075 17.84C48.1625 15.38 49.3325 13.04 50.7875 10.88H50.7425C48.65 10.6625 46.0925 9.52996 43.355 7.73746C40.8464 6.05085 38.4877 4.15134 36.305 2.05996C35.4893 1.29493 34.4701 0.781786 33.3698 0.58221C32.2694 0.382634 31.1349 0.505126 30.1025 0.934957C29.0436 1.3546 28.1346 2.08189 27.493 3.02301C26.8513 3.96412 26.5063 5.07591 26.5025 6.21496V20.2925C22.6785 22.3536 19.1682 24.9498 16.0775 28.0025C12.5 31.6175 10.5575 36.1325 9.5525 39.185C9.1325 40.4375 8.2925 41.195 7.5125 41.4125C5.49222 41.9907 3.71515 43.2111 2.44998 44.889C1.1848 46.5669 0.500312 48.611 0.5 50.7125V56.675C0.5 61.0625 3.4175 64.91 7.6325 66.1025C8.11214 66.2695 8.54555 66.5474 8.89745 66.9136C9.24934 67.2799 9.50976 67.724 9.6575 68.21C10.9025 71.75 13.3925 77.3825 17.8325 81.8825C21.3672 85.4554 25.7131 88.1211 30.5 89.6525V91.25C30.5 94.2336 31.6853 97.0951 33.795 99.2049C35.9048 101.315 38.7663 102.5 41.75 102.5H45.5C47.4891 102.5 49.3968 101.71 50.8033 100.303C52.2098 98.8967 53 96.9891 53 95H68C68 96.9891 68.7902 98.8967 70.1967 100.303C71.6032 101.71 73.5109 102.5 75.5 102.5H79.25C82.2337 102.5 85.0952 101.315 87.205 99.2049C89.3147 97.0951 90.5 94.2336 90.5 91.25V83.4275C92.9999 81.6103 95.2449 79.4662 97.175 77.0525C101.39 71.8025 105.5 63.6425 105.5 52.0025C105.5 47.1275 104.81 42.7625 103.475 38.8625C102.138 42.1947 100.215 45.2605 97.7975 47.915ZM96.4325 19.0625C98.3073 23.5868 98.6552 28.5992 97.4235 33.3392C96.1918 38.0792 93.4477 42.2881 89.6075 45.3275C86.48 47.795 82.1975 47.6075 78.5225 46.0775L60.5975 38.66C56.9225 37.1375 53.7575 34.2425 53.2925 30.29C52.6697 24.899 54.0157 19.4646 57.0826 14.9875C60.1494 10.5103 64.7306 7.29202 69.9824 5.92519C75.2343 4.55836 80.8031 5.13506 85.6634 7.54908C90.5237 9.96311 94.3482 14.0519 96.4325 19.0625ZM84.9575 39.44C87.0102 37.8179 88.6033 35.6873 89.5786 33.2596C90.5539 30.832 90.8777 28.1915 90.5177 25.6001C90.1577 23.0087 89.1265 20.5564 87.5264 18.4865C85.9263 16.4166 83.8129 14.8009 81.3957 13.7997C78.9786 12.7986 76.3417 12.4467 73.7466 12.7791C71.1515 13.1114 68.6884 14.1164 66.6015 15.6943C64.5147 17.2722 62.8766 19.3683 61.8497 21.7747C60.8228 24.181 60.4429 26.814 60.7475 29.4125C60.7625 29.5625 60.8225 29.84 61.2425 30.2825C61.8779 30.9126 62.6361 31.4053 63.47 31.73L81.395 39.155C82.2137 39.5206 83.1009 39.7072 83.9975 39.7025C84.5975 39.6875 84.845 39.53 84.9575 39.44ZM36.125 46.25C37.6168 46.25 39.0476 45.6573 40.1025 44.6024C41.1574 43.5475 41.75 42.1168 41.75 40.625C41.75 39.1331 41.1574 37.7024 40.1025 36.6475C39.0476 35.5926 37.6168 35 36.125 35C34.6332 35 33.2024 35.5926 32.1475 36.6475C31.0926 37.7024 30.5 39.1331 30.5 40.625C30.5 42.1168 31.0926 43.5475 32.1475 44.6024C33.2024 45.6573 34.6332 46.25 36.125 46.25Z" fill="url(#paint0_linear_142_35)"/>
<defs>
<linearGradient id="paint0_linear_142_35" x1="53" y1="0.489014" x2="53" y2="102.5" gradientUnits="userSpaceOnUse">
<stop stop-color="#5F3791"/>
<stop offset="1" stop-color="#63AF8F"/>
</linearGradient>
</defs>
</svg>
