<svg width="86" height="99" viewBox="0 0 86 99" fill="none" xmlns="http://www.w3.org/2000/svg">
<path d="M75.6647 28.3125L57.4011 10.0489V28.3125H75.6647ZM78.5886 35.375H50.3386V7.125H7.96362V91.875H78.5886V35.375ZM4.43237 0.0625H57.4011L85.6511 28.3125V95.4062C85.6511 96.3428 85.2791 97.241 84.6168 97.9032C83.9546 98.5655 83.0564 98.9375 82.1199 98.9375H4.43237C3.49583 98.9375 2.59764 98.5655 1.9354 97.9032C1.27317 97.241 0.901123 96.3428 0.901123 95.4062V3.59375C0.901123 2.6572 1.27317 1.75902 1.9354 1.09678C2.59764 0.434541 3.49583 0.0625 4.43237 0.0625ZM38.5301 60.348L28.5437 50.3475L33.5369 45.3543L43.5304 55.3407L53.5167 45.3614L58.5099 50.3546L48.5236 60.348L58.5099 70.3344L53.5167 75.3276L43.5304 65.3412L33.5369 75.3276L28.5437 70.3344L38.5301 60.348Z" fill="url(#paint0_linear_141_3713)"/>
<defs>
<linearGradient id="paint0_linear_141_3713" x1="43.2761" y1="0.0625" x2="43.2761" y2="98.9375" gradientUnits="userSpaceOnUse">
<stop stop-color="#5F3791"/>
<stop offset="0.994792" stop-color="#63AF8F"/>
</linearGradient>
</defs>
</svg>
