<svg width="121" height="121" viewBox="0 0 121 121" fill="none" xmlns="http://www.w3.org/2000/svg">
<path d="M120.204 88.4876L118.883 87.7415C118.783 87.6852 108.691 81.9224 106.088 74.7688L105.507 73.1842L104.506 74.5391C104.474 74.5816 103.084 76.361 99.1447 78.4869C95.9242 61.7922 85.5847 41.9696 72.2926 33.6658C76.0572 33.9072 79.8234 33.5324 83.4409 32.148C85.6193 31.3156 84.614 27.7598 82.4157 28.6046C79.4502 29.7401 76.4656 30.0858 73.4795 29.9835C80.6926 23.1485 86.2725 12.7641 86.1472 5.24118C86.1171 3.43343 86.0611 0.0678954 83.3814 0.11252C82.3056 0.130437 81.4469 0.81683 80.2605 1.76472C78.4405 3.21722 75.6927 5.41528 71.6032 5.48339C70.0455 5.50933 67.1665 3.91305 64.8528 2.63139C62.0567 1.08374 60.2706 0.135345 58.7828 0.160122C56.3192 0.20115 52.7308 2.25318 49.5646 4.06416C48.2766 4.79971 46.5152 5.80918 46.1488 5.90929C41.5175 5.98642 38.7923 3.89551 36.985 2.51141C35.9313 1.70084 35.1674 1.11348 34.1616 1.13023C31.5259 1.17412 31.5786 4.33568 31.6396 7.99717C31.7572 15.0642 37.2959 24.3032 44.4493 30.455C40.0132 30.8469 35.6561 32.2617 32.6282 35.2945C30.9558 36.9666 33.5749 39.5313 35.2414 37.8633C37.7577 35.3411 41.0936 34.2234 44.6776 33.9577C44.7857 34.3219 44.9157 34.6798 45.0736 35.0312C30.2235 46.082 19.9741 71.9063 20.2624 89.2199C20.2909 90.9276 20.4486 92.4712 20.6768 93.9236C16.7727 92.2664 15.3337 90.7802 15.3052 90.7466L14.2535 89.574L13.7705 91.0822C11.6349 97.7267 1.96768 103.621 1.87066 103.68L0.454682 104.534L1.92157 105.296C2.43609 105.563 2.94605 105.797 3.46035 106.05L2.5511 106.703L3.13827 112.774L41.3777 120.467L55.6698 110.985C57.1277 110.969 58.6036 110.948 60.1053 110.923L77.1447 119.871L115.118 107.237L115.011 100.82L113.991 100.231C114.489 99.9024 114.988 99.568 115.484 99.2237L116.807 98.3076L116.511 98.1685L118.205 97.6742L118.382 90.9983L117.386 90.3168C117.905 89.9941 118.421 89.6655 118.94 89.3248L120.204 88.4876ZM35.2771 7.9366C35.2623 7.04872 35.2627 6.35662 35.2718 5.81839C35.5817 6.05326 35.9421 6.3093 36.3265 6.57293C37.5388 9.34513 39.8115 13.3278 43.5931 15.7972C48.1878 18.8011 47.5249 15.2717 49.8947 11.9998C52.2646 8.72985 53.8762 7.01077 58.074 15.25C59.9041 18.842 62.6851 8.67232 65.4641 7.14784C66.2127 7.53943 66.9589 7.90305 67.6901 8.21092C72.8536 16.3021 75.1408 13.7136 79.493 6.8442C80.7088 6.10385 81.7038 5.31518 82.4954 4.68391C82.5025 4.86981 82.51 5.07572 82.5138 5.30569C82.6207 11.7248 77.5287 21.0189 71.2056 27.131C70.8895 26.3654 70.4433 25.6602 69.8868 25.0467C67.2442 22.1523 63.245 25.4773 61.3589 27.647C57.9311 26.608 52.3256 23.6829 48.7349 25.4709C47.8404 25.9041 47.0219 26.4791 46.3109 27.1735C40.3019 21.8769 35.3808 14.1677 35.2771 7.9366ZM68.046 29.3419C67.1463 29.1667 66.2512 28.9682 65.3617 28.7465C66.4616 27.7661 67.4798 27.4131 67.9336 28.8357C67.9822 28.9909 68.0131 29.1684 68.046 29.3419ZM52.8688 30.8369C52.2048 30.7219 51.523 30.6192 50.8216 30.5409C50.2853 30.2171 49.76 29.8756 49.2463 29.517C51.0537 28.2607 54.2161 28.8601 57.2447 29.8318C55.7614 30.0066 54.301 30.3549 52.8688 30.8369ZM53.8646 36.101C52.7494 36.3996 51.5277 36.3079 50.4669 35.9055C50.8911 35.6725 51.3197 35.4693 51.7484 35.2641C52.4539 35.5904 53.1585 35.8607 53.8646 36.101ZM18.0897 109.611C13.2971 108.309 8.6386 106.556 4.17657 104.376C6.86049 102.547 12.6998 98.135 15.0172 92.9117C16.6865 94.1781 20.5293 96.4744 27.9664 98.1628C27.8438 98.3689 27.6935 98.5894 27.5491 98.8059C21.1984 97.2554 17.568 95.2216 17.5094 95.1865L16.6289 94.6811L16.2265 95.622C15.6969 96.855 14.4102 97.0604 13.6923 97.0724C13.4923 97.0757 13.3581 97.0639 13.3401 97.0622L12.6244 96.9701L12.3759 97.6584C11.8672 99.063 9.71384 100.923 8.92371 101.522L7.60422 102.524L9.14243 103.125C9.71421 103.347 9.87175 103.559 9.88069 103.615C9.90298 103.752 9.66708 104.12 9.41261 104.335L8.26439 105.292L9.62862 105.895C12.4236 107.129 15.5828 108.136 18.7389 108.958C18.493 109.208 18.2805 109.422 18.0897 109.611ZM34.0913 101.891C36.8935 102.237 39.9952 102.433 43.3787 102.377L43.3807 102.377C44.0846 102.365 44.7983 102.341 45.5259 102.307C45.5769 102.457 45.6486 102.599 45.7389 102.73C45.9214 102.997 46.1651 103.217 46.4719 103.385L41.4413 107.832C41.3439 107.829 41.2466 107.829 41.1492 107.831C38.8755 107.869 37.1937 108.733 36.4046 110.234C33.3144 109.892 30.2367 109.445 27.177 108.893C29.5922 106.671 31.8996 104.334 34.0913 101.891ZM11.4364 104.663C11.63 104.282 11.7524 103.822 11.6741 103.323C11.6001 102.873 11.3769 102.461 11.0405 102.153C11.9256 101.368 13.1436 100.16 13.803 98.9188C15.3485 98.871 16.6145 98.2639 17.4012 97.2146C18.7668 97.9 21.8401 99.279 26.3662 100.444C24.5629 102.784 22.1249 105.445 20.2276 107.425C17.2067 106.679 14.1612 105.77 11.4364 104.663ZM40.0746 112.605L39.6647 112.614C37.9429 112.643 32.2354 112.598 24.6723 111.153C24.9325 110.925 25.2026 110.691 25.4529 110.466C31.5894 111.642 36.5298 112.108 36.9005 112.144L37.6337 112.21L37.8478 111.496C38.3162 109.956 40.1342 109.7 41.1781 109.682C41.464 109.678 41.6543 109.693 41.6763 109.694L42.065 109.73L50.8036 102.007L48.4326 101.969C47.6403 101.954 47.3033 101.781 47.2193 101.661L47.6994 100.339L46.3125 100.42C45.3014 100.481 44.3139 100.519 43.348 100.535L43.346 100.535C40.5544 100.582 37.9617 100.441 35.5632 100.191L36.1082 99.5255C40.9503 100.091 46.7421 100.393 53.7263 100.226C52.0975 102.594 48.0209 107.636 40.0746 112.605ZM59.9751 103.583L60.0359 107.232C58.898 107.251 57.7901 107.266 56.7061 107.276L56.3118 103.174L53.6078 103.439C55.3957 101.253 56.1496 99.8018 56.2174 99.6706L56.9282 98.2706L55.3789 98.3244C40.5495 98.8434 30.8454 97.2368 24.7055 95.3748C24.2296 93.5784 23.9376 91.543 23.898 89.1613C23.6274 72.9176 33.5991 48.1921 47.2155 38.012C49.6965 40.333 53.4172 41.3052 56.8984 38.9489C57.6619 38.4321 58.3229 37.761 58.9411 37.0486C59.0911 37.0501 59.2457 37.0815 59.3977 37.079C59.9016 37.0706 60.4128 37.0201 60.9217 36.9476C61.5719 37.1948 62.2081 37.4443 62.7983 37.6925C65.6245 38.8816 68.0074 38.0738 69.6148 36.3428C82.3663 43.7715 92.8174 63.8102 95.751 80.0996C90.0183 82.5034 80.901 84.9076 66.8576 85.5375C69.6028 83.9076 71.6382 81.2093 70.832 77.7222C69.9845 74.0358 66.8756 73.0475 63.6712 72.9308C63.6343 71.1932 63.6054 69.4594 63.5885 67.7215C64.5776 68.1391 65.5278 68.6233 66.3925 69.143C67.9201 70.0677 69.247 67.5832 67.7293 66.6584C66.4135 65.8614 65.0126 65.2145 63.5526 64.7297C63.5391 62.7176 63.5157 60.7097 63.4823 58.702C63.4536 56.8622 60.72 56.9077 60.7506 58.7475C60.7801 60.5132 60.7974 62.2772 60.8108 64.0392C59.3515 63.8099 57.8655 63.8097 56.4061 64.0386C56.1463 62.7189 55.8362 61.4096 55.4767 60.1135C54.9952 58.3493 52.3681 59.1431 52.8556 60.9132C53.2128 62.1855 53.508 63.4527 53.7554 64.7388C53.6402 64.7847 53.5146 64.8088 53.4015 64.8627C49.7224 66.3902 47.5249 70.1653 50.2926 73.6057C51.5815 75.2084 53.2422 75.8369 55.0515 76.0248C55.1896 78.4288 55.2917 80.8354 55.4017 83.2379C54.1788 82.4722 53.0601 81.4827 52.0445 80.4335C50.787 79.1502 48.8908 81.1961 50.1463 82.4773C51.8538 84.2352 53.638 85.5556 55.5622 86.3877C55.6824 88.44 55.8386 90.4977 56.0727 92.5381C56.2788 94.3489 59.0146 94.3133 58.8063 92.4925C58.6083 90.7276 58.4541 88.9581 58.3438 87.1855C59.3867 87.3482 60.4793 87.376 61.6373 87.2467C61.7988 89.1362 61.9823 91.0254 62.2298 92.9136C62.3718 93.9954 63.4147 94.4041 64.175 94.1714L64.0704 98.1017C62.8684 98.2297 61.6422 98.3501 60.3638 98.4554L58.8417 98.5808L59.6754 99.8791C59.7596 100.01 60.7057 101.452 62.7988 103.54L59.9752 103.587L59.9751 103.583ZM109.525 89.5916C107.031 90.8153 103.87 91.9521 100.646 92.9519C98.6197 90.9274 96.0264 88.2242 94.0841 85.8202C98.3001 84.4658 100.65 83.1025 101.708 82.3708C102.566 83.1026 103.692 83.4719 105.018 83.4478C105.458 83.4405 105.847 83.392 106.146 83.339C107.127 84.5668 108.699 85.9769 109.681 86.8186C109.231 87.2962 109.017 87.8198 109.045 88.3814C109.069 88.8611 109.268 89.2658 109.525 89.5916ZM95.3264 96.401C95.7404 96.7541 96.1684 97.115 96.6046 97.4798C88.5335 99.7645 82.5042 100.099 81.1908 100.143C72.7106 95.1614 68.269 89.8146 66.5506 87.4029C73.5727 87.1099 79.3693 86.3773 84.198 85.4207C84.399 85.6594 84.6023 85.896 84.8079 86.1307C80.9252 86.8018 77.0082 87.2563 73.075 87.4922L71.4623 87.5871L72.3728 88.9301C72.3709 88.9322 72.1965 89.2711 71.0085 89.5229L69.0771 89.9332L78.7322 97.4874L79.1741 97.3601C79.1841 97.3579 80.0202 97.1179 81.0361 97.101C82.5019 97.0766 83.5112 97.5059 84.0296 98.3693L84.3588 98.9159L84.9789 98.7956C88.4515 98.1026 91.9023 97.304 95.3264 96.401ZM67.0385 90.9932L64.7607 90.9072C64.6358 89.7731 64.5109 88.639 64.412 87.5045C64.823 88.1617 65.6637 89.3959 67.0385 90.9932ZM64.1009 83.7192C63.9249 81.0295 63.8007 78.3367 63.7284 75.6422C64.0565 75.6488 64.381 75.6734 64.6897 75.7122C68.2341 76.1893 69.2235 80.1054 66.5007 82.363C65.7903 82.9449 64.9673 83.3767 64.1009 83.7192ZM85.2009 96.8736C84.2866 95.7827 82.8511 95.2265 81.0074 95.2572C80.2375 95.2701 79.5613 95.3853 79.1348 95.4765L73.0648 90.7229C73.558 90.4286 73.8879 90.0611 74.0645 89.6141C74.1079 89.5028 74.1408 89.3878 74.1628 89.2704C78.9058 88.9314 82.8973 88.3908 86.2692 87.7546C87.9394 89.557 90.3911 92.0405 93.6355 94.9209C89.7256 95.9202 86.4627 96.6146 85.2009 96.8736ZM60.994 75.7598C61.0802 78.6568 61.2006 81.5611 61.4028 84.4542C61.1455 84.4985 60.8924 84.5527 60.6388 84.5829C59.7806 84.6952 58.9635 84.6368 58.1843 84.4538C58.0397 81.6558 57.929 78.8512 57.7764 76.0514C58.8514 75.9835 59.9395 75.8594 60.994 75.7598ZM57.5923 73.2861C57.4308 71.0909 57.1875 68.9024 56.8629 66.7253C58.1854 66.5211 59.5344 66.5671 60.8398 66.8611C60.8595 68.9057 60.8902 70.9502 60.9319 72.9944C60.0548 73.057 59.2223 73.1549 58.4895 73.2331C58.1912 73.2614 57.8919 73.2791 57.5923 73.2861ZM54.8428 72.9818C54.6721 72.9387 54.5035 72.9055 54.3286 72.8504C53.5239 72.5925 52.7919 72.1475 52.1927 71.5518C50.4584 69.9864 52.776 68.3836 54.2414 67.6171C54.503 69.393 54.6929 71.1861 54.8428 72.9818ZM77.5621 111.541C68.8074 107.25 64.0679 102.398 62.1802 100.145C63.5083 100.023 64.7641 99.8824 66.0079 99.7356L80.3958 108.737L111.469 99.6426C95.5324 109.613 79.6533 111.356 77.5621 111.541ZM103.08 95.3337C102.819 95.082 102.508 94.7832 102.14 94.4232C105.674 93.2882 109.089 91.9832 111.628 90.5687L113.171 89.7049L111.578 88.9273C111.221 88.7512 110.87 88.423 110.862 88.2972C110.865 88.2491 111.001 87.9908 111.601 87.6328L112.745 86.9496L111.703 86.1109C111.671 86.0854 108.421 83.4771 107.267 81.7821L106.885 81.2284L106.251 81.425C106.245 81.4251 105.699 81.5922 104.987 81.6041C103.888 81.6244 103.058 81.2781 102.518 80.579L101.921 79.8149L101.2 80.457C101.162 80.4896 98.9275 82.3851 92.8796 84.242C92.6747 83.9571 92.4771 83.6669 92.287 83.3718C99.6188 81.0154 103.339 78.249 104.946 76.7421C107.66 82.3656 113.974 86.8271 116.711 88.5718C112.405 91.2764 107.838 93.5418 103.08 95.3337Z" fill="url(#paint0_linear_141_3710)"/>
<defs>
<linearGradient id="paint0_linear_141_3710" x1="58.7248" y1="0.161088" x2="60.723" y2="120.144" gradientUnits="userSpaceOnUse">
<stop stop-color="#5F3791"/>
<stop offset="1" stop-color="#63AF8F"/>
</linearGradient>
</defs>
</svg>
