<svg version="1.1" id="Layer_1" xmlns="http://www.w3.org/2000/svg" xmlns:xlink="http://www.w3.org/1999/xlink" x="0px" y="0px" viewBox="0 0 512 512" style="enable-background:new 0 0 512 512; width: 45px" xml:space="preserve">
        <path style="fill:#242121;" d="M0,256c0,141.384,114.615,256,256,256l22.261-256L256,0C114.615,0,0,114.615,0,256z"/>
        <path style="fill:#171212;" d="M256,0v512c141.384,0,256-114.616,256-256S397.384,0,256,0z"/>
        <polygon style="fill:rgb(255 92 92);" points="161.555,114.333 114.333,161.555 208.778,256 114.333,350.445 161.555,397.667 256,303.222 278.261,256 256,208.778 "/>
        <polygon style="fill:rgb(253 0 0);" points="397.667,161.555 350.445,114.333 256,208.778 256,303.222 350.445,397.667 397.667,350.445 303.222,256 "/>
        </svg>
