<svg version="1.1" id="Layer_1" xmlns="http://www.w3.org/2000/svg" xmlns:xlink="http://www.w3.org/1999/xlink" x="0px" y="0px" viewBox="0 0 484.8 484.8" style="enable-background:new 0 0 484.8 484.8; width: 45px" xml:space="preserve">
        <circle style="fill:#242121;" cx="242.4" cy="242.4" r="242.4"/>
        <path style="fill:#171212;" d="M0,242.4C0,376,108,484,242.4,484C376,484,484,376,484,242.4"/>
        <polygon style="fill:#63AF8F;" points="394.4,202.4 282.4,202.4 282.4,90.4 202.4,90.4 202.4,202.4 90.4,202.4 90.4,282.4 202.4,282.4 202.4,394.4 282.4,394.4 282.4,282.4 394.4,282.4 "/>
        <polygon style="fill:rgb(13 66 40);" points="282.4,200.8 200.8,282.4 202.4,282.4 202.4,394.4 282.4,394.4 282.4,282.4 394.4,282.4 394.4,202.4 282.4,202.4 "/>
        </svg>
